# MagicaVoxel @ ephtracy

# material
mtllib Floor.mtl
usemtl palette

# normals
vn -1 0 0
vn 1 0 0
vn 0 0 1
vn 0 0 -1
vn 0 -1 0
vn 0 1 0

# texcoords
vt 0.0292969 0.5
vt 0.873047 0.5
vt 0.958984 0.5

# verts
v -56 0 34
v -56 0 -34
v -56 2 34
v -56 2 -34
v 56 0 34
v 56 0 -34
v 56 2 34
v 56 2 -34
v -56 0 34
v -56 2 34
v 56 0 34
v 56 2 34
v -56 0 -34
v -56 2 -34
v 56 0 -34
v 56 2 -34
v -56 0 34
v 56 0 34
v -56 0 -34
v 56 0 -34
v -56 2 34
v 56 2 34
v -54 2 32
v -44 2 32
v -34 2 32
v -32 2 32
v -22 2 32
v -12 2 32
v -10 2 32
v 0 2 32
v 10 2 32
v 12 2 32
v 22 2 32
v 32 2 32
v 34 2 32
v 44 2 32
v 54 2 32
v -54 2 22
v -44 2 22
v -34 2 22
v -32 2 22
v -22 2 22
v -12 2 22
v -10 2 22
v 0 2 22
v 10 2 22
v 12 2 22
v 22 2 22
v 32 2 22
v 34 2 22
v 44 2 22
v 54 2 22
v -54 2 12
v -44 2 12
v -34 2 12
v -32 2 12
v -22 2 12
v -12 2 12
v -10 2 12
v 0 2 12
v 10 2 12
v 12 2 12
v 22 2 12
v 32 2 12
v 34 2 12
v 44 2 12
v 54 2 12
v -10 2 11
v 0 2 11
v -54 2 10
v -44 2 10
v -34 2 10
v -32 2 10
v -22 2 10
v -12 2 10
v 0 2 10
v 10 2 10
v 12 2 10
v 22 2 10
v 32 2 10
v 34 2 10
v 44 2 10
v 54 2 10
v -54 2 -0
v -44 2 -0
v -34 2 -0
v -32 2 -0
v -22 2 -0
v -12 2 -0
v -10 2 -0
v 0 2 -0
v 10 2 -0
v 12 2 -0
v 22 2 -0
v 32 2 -0
v 34 2 -0
v 44 2 -0
v 54 2 -0
v -54 2 -10
v -44 2 -10
v -34 2 -10
v -32 2 -10
v -22 2 -10
v -12 2 -10
v -10 2 -10
v 0 2 -10
v 10 2 -10
v 12 2 -10
v 22 2 -10
v 32 2 -10
v 34 2 -10
v 44 2 -10
v 54 2 -10
v -54 2 -12
v -44 2 -12
v -34 2 -12
v -32 2 -12
v -22 2 -12
v -12 2 -12
v -10 2 -12
v 0 2 -12
v 10 2 -12
v 12 2 -12
v 22 2 -12
v 32 2 -12
v 34 2 -12
v 44 2 -12
v 54 2 -12
v -54 2 -22
v -44 2 -22
v -34 2 -22
v -32 2 -22
v -22 2 -22
v -12 2 -22
v -10 2 -22
v 0 2 -22
v 10 2 -22
v 12 2 -22
v 22 2 -22
v 32 2 -22
v 34 2 -22
v 44 2 -22
v 54 2 -22
v -54 2 -32
v -44 2 -32
v -34 2 -32
v -32 2 -32
v -22 2 -32
v -12 2 -32
v -10 2 -32
v 0 2 -32
v 10 2 -32
v 12 2 -32
v 22 2 -32
v 32 2 -32
v 34 2 -32
v 44 2 -32
v 54 2 -32
v -56 2 -34
v 56 2 -34

# faces
f 3/1/1 2/1/1 1/1/1
f 4/1/1 2/1/1 3/1/1
f 5/1/2 6/1/2 7/1/2
f 7/1/2 6/1/2 8/1/2
f 11/1/3 10/1/3 9/1/3
f 12/1/3 10/1/3 11/1/3
f 13/1/4 14/1/4 15/1/4
f 15/1/4 14/1/4 16/1/4
f 19/1/5 18/1/5 17/1/5
f 20/1/5 18/1/5 19/1/5
f 21/1/6 22/1/6 23/1/6
f 23/1/6 22/1/6 24/1/6
f 24/1/6 22/1/6 25/1/6
f 25/1/6 22/1/6 26/1/6
f 26/1/6 22/1/6 27/1/6
f 27/1/6 22/1/6 28/1/6
f 28/1/6 22/1/6 29/1/6
f 29/1/6 22/1/6 30/1/6
f 30/1/6 22/1/6 31/1/6
f 31/1/6 22/1/6 32/1/6
f 32/1/6 22/1/6 33/1/6
f 33/1/6 22/1/6 34/1/6
f 34/1/6 22/1/6 35/1/6
f 35/1/6 22/1/6 36/1/6
f 36/1/6 22/1/6 37/1/6
f 21/1/6 23/1/6 38/1/6
f 23/2/6 24/2/6 38/2/6
f 24/3/6 25/3/6 39/3/6
f 38/2/6 24/2/6 39/2/6
f 25/1/6 26/1/6 40/1/6
f 39/3/6 25/3/6 40/3/6
f 26/2/6 27/2/6 41/2/6
f 40/1/6 26/1/6 41/1/6
f 27/3/6 28/3/6 42/3/6
f 41/2/6 27/2/6 42/2/6
f 28/1/6 29/1/6 43/1/6
f 42/3/6 28/3/6 43/3/6
f 29/2/6 30/2/6 44/2/6
f 43/1/6 29/1/6 44/1/6
f 30/3/6 31/3/6 45/3/6
f 44/2/6 30/2/6 45/2/6
f 31/1/6 32/1/6 46/1/6
f 45/3/6 31/3/6 46/3/6
f 32/2/6 33/2/6 47/2/6
f 46/1/6 32/1/6 47/1/6
f 33/3/6 34/3/6 48/3/6
f 47/2/6 33/2/6 48/2/6
f 34/1/6 35/1/6 49/1/6
f 48/3/6 34/3/6 49/3/6
f 35/2/6 36/2/6 50/2/6
f 49/1/6 35/1/6 50/1/6
f 36/3/6 37/3/6 51/3/6
f 50/2/6 36/2/6 51/2/6
f 37/1/6 22/1/6 52/1/6
f 51/3/6 37/3/6 52/3/6
f 21/1/6 38/1/6 53/1/6
f 38/3/6 39/3/6 53/3/6
f 39/2/6 40/2/6 54/2/6
f 53/3/6 39/3/6 54/3/6
f 40/1/6 41/1/6 55/1/6
f 54/2/6 40/2/6 55/2/6
f 41/3/6 42/3/6 56/3/6
f 55/1/6 41/1/6 56/1/6
f 42/2/6 43/2/6 57/2/6
f 56/3/6 42/3/6 57/3/6
f 43/1/6 44/1/6 58/1/6
f 57/2/6 43/2/6 58/2/6
f 44/3/6 45/3/6 59/3/6
f 58/1/6 44/1/6 59/1/6
f 45/2/6 46/2/6 60/2/6
f 59/3/6 45/3/6 60/3/6
f 46/1/6 47/1/6 61/1/6
f 60/2/6 46/2/6 61/2/6
f 47/3/6 48/3/6 62/3/6
f 61/1/6 47/1/6 62/1/6
f 48/2/6 49/2/6 63/2/6
f 62/3/6 48/3/6 63/3/6
f 49/1/6 50/1/6 64/1/6
f 63/2/6 49/2/6 64/2/6
f 50/3/6 51/3/6 65/3/6
f 64/1/6 50/1/6 65/1/6
f 51/2/6 52/2/6 66/2/6
f 65/3/6 51/3/6 66/3/6
f 52/1/6 22/1/6 67/1/6
f 66/2/6 52/2/6 67/2/6
f 63/1/6 64/1/6 68/1/6
f 62/1/6 63/1/6 68/1/6
f 66/1/6 67/1/6 68/1/6
f 61/1/6 62/1/6 68/1/6
f 60/1/6 61/1/6 68/1/6
f 59/1/6 60/1/6 68/1/6
f 58/1/6 59/1/6 68/1/6
f 57/1/6 58/1/6 68/1/6
f 56/1/6 57/1/6 68/1/6
f 55/1/6 56/1/6 68/1/6
f 54/1/6 55/1/6 68/1/6
f 53/1/6 54/1/6 68/1/6
f 65/1/6 66/1/6 68/1/6
f 64/1/6 65/1/6 68/1/6
f 68/1/6 67/1/6 69/1/6
f 21/1/6 53/1/6 70/1/6
f 53/1/6 68/1/6 70/1/6
f 70/1/6 68/1/6 71/1/6
f 71/1/6 68/1/6 72/1/6
f 72/1/6 68/1/6 73/1/6
f 73/1/6 68/1/6 74/1/6
f 74/1/6 68/1/6 75/1/6
f 69/1/6 67/1/6 76/1/6
f 68/2/6 69/2/6 76/2/6
f 76/1/6 67/1/6 77/1/6
f 77/1/6 67/1/6 78/1/6
f 78/1/6 67/1/6 79/1/6
f 79/1/6 67/1/6 80/1/6
f 80/1/6 67/1/6 81/1/6
f 81/1/6 67/1/6 82/1/6
f 67/1/6 22/1/6 83/1/6
f 82/1/6 67/1/6 83/1/6
f 21/1/6 70/1/6 84/1/6
f 70/2/6 71/2/6 84/2/6
f 71/3/6 72/3/6 85/3/6
f 84/2/6 71/2/6 85/2/6
f 72/1/6 73/1/6 86/1/6
f 85/3/6 72/3/6 86/3/6
f 73/2/6 74/2/6 87/2/6
f 86/1/6 73/1/6 87/1/6
f 74/3/6 75/3/6 88/3/6
f 87/2/6 74/2/6 88/2/6
f 75/1/6 68/1/6 89/1/6
f 88/3/6 75/3/6 89/3/6
f 68/2/6 76/2/6 90/2/6
f 89/1/6 68/1/6 90/1/6
f 76/3/6 77/3/6 91/3/6
f 90/2/6 76/2/6 91/2/6
f 77/1/6 78/1/6 92/1/6
f 91/3/6 77/3/6 92/3/6
f 78/2/6 79/2/6 93/2/6
f 92/1/6 78/1/6 93/1/6
f 79/3/6 80/3/6 94/3/6
f 93/2/6 79/2/6 94/2/6
f 80/1/6 81/1/6 95/1/6
f 94/3/6 80/3/6 95/3/6
f 81/2/6 82/2/6 96/2/6
f 95/1/6 81/1/6 96/1/6
f 82/3/6 83/3/6 97/3/6
f 96/2/6 82/2/6 97/2/6
f 83/1/6 22/1/6 98/1/6
f 97/3/6 83/3/6 98/3/6
f 21/1/6 84/1/6 99/1/6
f 84/3/6 85/3/6 99/3/6
f 85/2/6 86/2/6 100/2/6
f 99/3/6 85/3/6 100/3/6
f 86/1/6 87/1/6 101/1/6
f 100/2/6 86/2/6 101/2/6
f 87/3/6 88/3/6 102/3/6
f 101/1/6 87/1/6 102/1/6
f 88/2/6 89/2/6 103/2/6
f 102/3/6 88/3/6 103/3/6
f 89/1/6 90/1/6 104/1/6
f 103/2/6 89/2/6 104/2/6
f 90/3/6 91/3/6 105/3/6
f 104/1/6 90/1/6 105/1/6
f 91/2/6 92/2/6 106/2/6
f 105/3/6 91/3/6 106/3/6
f 92/1/6 93/1/6 107/1/6
f 106/2/6 92/2/6 107/2/6
f 93/3/6 94/3/6 108/3/6
f 107/1/6 93/1/6 108/1/6
f 94/2/6 95/2/6 109/2/6
f 108/3/6 94/3/6 109/3/6
f 95/1/6 96/1/6 110/1/6
f 109/2/6 95/2/6 110/2/6
f 96/3/6 97/3/6 111/3/6
f 110/1/6 96/1/6 111/1/6
f 97/2/6 98/2/6 112/2/6
f 111/3/6 97/3/6 112/3/6
f 98/1/6 22/1/6 113/1/6
f 112/2/6 98/2/6 113/2/6
f 107/1/6 108/1/6 114/1/6
f 100/1/6 101/1/6 114/1/6
f 112/1/6 113/1/6 114/1/6
f 106/1/6 107/1/6 114/1/6
f 105/1/6 106/1/6 114/1/6
f 104/1/6 105/1/6 114/1/6
f 103/1/6 104/1/6 114/1/6
f 102/1/6 103/1/6 114/1/6
f 101/1/6 102/1/6 114/1/6
f 21/1/6 99/1/6 114/1/6
f 110/1/6 111/1/6 114/1/6
f 111/1/6 112/1/6 114/1/6
f 108/1/6 109/1/6 114/1/6
f 109/1/6 110/1/6 114/1/6
f 99/1/6 100/1/6 114/1/6
f 114/1/6 113/1/6 115/1/6
f 115/1/6 113/1/6 116/1/6
f 116/1/6 113/1/6 117/1/6
f 117/1/6 113/1/6 118/1/6
f 118/1/6 113/1/6 119/1/6
f 119/1/6 113/1/6 120/1/6
f 120/1/6 113/1/6 121/1/6
f 121/1/6 113/1/6 122/1/6
f 122/1/6 113/1/6 123/1/6
f 123/1/6 113/1/6 124/1/6
f 124/1/6 113/1/6 125/1/6
f 125/1/6 113/1/6 126/1/6
f 126/1/6 113/1/6 127/1/6
f 113/1/6 22/1/6 128/1/6
f 127/1/6 113/1/6 128/1/6
f 21/1/6 114/1/6 129/1/6
f 114/2/6 115/2/6 129/2/6
f 115/3/6 116/3/6 130/3/6
f 129/2/6 115/2/6 130/2/6
f 116/1/6 117/1/6 131/1/6
f 130/3/6 116/3/6 131/3/6
f 117/2/6 118/2/6 132/2/6
f 131/1/6 117/1/6 132/1/6
f 118/3/6 119/3/6 133/3/6
f 132/2/6 118/2/6 133/2/6
f 119/1/6 120/1/6 134/1/6
f 133/3/6 119/3/6 134/3/6
f 120/2/6 121/2/6 135/2/6
f 134/1/6 120/1/6 135/1/6
f 121/3/6 122/3/6 136/3/6
f 135/2/6 121/2/6 136/2/6
f 122/1/6 123/1/6 137/1/6
f 136/3/6 122/3/6 137/3/6
f 123/2/6 124/2/6 138/2/6
f 137/1/6 123/1/6 138/1/6
f 124/3/6 125/3/6 139/3/6
f 138/2/6 124/2/6 139/2/6
f 125/1/6 126/1/6 140/1/6
f 139/3/6 125/3/6 140/3/6
f 126/2/6 127/2/6 141/2/6
f 140/1/6 126/1/6 141/1/6
f 127/3/6 128/3/6 142/3/6
f 141/2/6 127/2/6 142/2/6
f 128/1/6 22/1/6 143/1/6
f 142/3/6 128/3/6 143/3/6
f 21/1/6 129/1/6 144/1/6
f 129/3/6 130/3/6 144/3/6
f 130/2/6 131/2/6 145/2/6
f 144/3/6 130/3/6 145/3/6
f 131/1/6 132/1/6 146/1/6
f 145/2/6 131/2/6 146/2/6
f 132/3/6 133/3/6 147/3/6
f 146/1/6 132/1/6 147/1/6
f 133/2/6 134/2/6 148/2/6
f 147/3/6 133/3/6 148/3/6
f 134/1/6 135/1/6 149/1/6
f 148/2/6 134/2/6 149/2/6
f 135/3/6 136/3/6 150/3/6
f 149/1/6 135/1/6 150/1/6
f 136/2/6 137/2/6 151/2/6
f 150/3/6 136/3/6 151/3/6
f 137/1/6 138/1/6 152/1/6
f 151/2/6 137/2/6 152/2/6
f 138/3/6 139/3/6 153/3/6
f 152/1/6 138/1/6 153/1/6
f 139/2/6 140/2/6 154/2/6
f 153/3/6 139/3/6 154/3/6
f 140/1/6 141/1/6 155/1/6
f 154/2/6 140/2/6 155/2/6
f 141/3/6 142/3/6 156/3/6
f 155/1/6 141/1/6 156/1/6
f 142/2/6 143/2/6 157/2/6
f 156/3/6 142/3/6 157/3/6
f 143/1/6 22/1/6 158/1/6
f 157/2/6 143/2/6 158/2/6
f 152/1/6 153/1/6 159/1/6
f 154/1/6 155/1/6 159/1/6
f 157/1/6 158/1/6 159/1/6
f 151/1/6 152/1/6 159/1/6
f 150/1/6 151/1/6 159/1/6
f 149/1/6 150/1/6 159/1/6
f 148/1/6 149/1/6 159/1/6
f 147/1/6 148/1/6 159/1/6
f 146/1/6 147/1/6 159/1/6
f 145/1/6 146/1/6 159/1/6
f 144/1/6 145/1/6 159/1/6
f 21/1/6 144/1/6 159/1/6
f 155/1/6 156/1/6 159/1/6
f 156/1/6 157/1/6 159/1/6
f 153/1/6 154/1/6 159/1/6
f 158/1/6 22/1/6 160/1/6
f 159/1/6 158/1/6 160/1/6
