# MagicaVoxel @ ephtracy

# material
mtllib market1.mtl
usemtl palette

# normals
vn -1 0 0
vn 1 0 0
vn 0 0 1
vn 0 0 -1
vn 0 -1 0
vn 0 1 0

# texcoords
vt 0.0605469 0.5
vt 0.232422 0.5
vt 0.337891 0.5
vt 0.373047 0.5
vt 0.513672 0.5
vt 0.537109 0.5
vt 0.689453 0.5

# verts
v -16 0 23
v -16 0 21
v -16 0 -7
v -16 0 -9
v -16 12 23
v -16 12 21
v -16 12 -7
v -16 12 -9
v -16 13 23
v -16 13 -9
v -15 13 23
v -15 13 -9
v -15 14 23
v -15 14 -9
v -12 14 23
v -12 14 -9
v -12 15 23
v -12 15 -9
v -11 15 14
v -11 15 -0
v -11 22 14
v -11 22 -0
v -9 15 23
v -9 15 -9
v -9 16 23
v -9 16 -9
v -6 16 23
v -6 16 -9
v -6 17 23
v -6 17 -9
v -3 0 19
v -3 0 18
v -3 0 11
v -3 0 10
v -3 11 18
v -3 11 17
v -3 11 12
v -3 11 11
v -3 12 19
v -3 12 18
v -3 12 17
v -3 12 16
v -3 12 13
v -3 12 12
v -3 12 11
v -3 12 10
v -3 13 18
v -3 13 17
v -3 13 16
v -3 13 13
v -3 13 12
v -3 13 11
v -3 14 17
v -3 14 12
v -3 17 24
v -3 17 23
v -3 17 4
v -3 19 24
v -3 19 4
v -2 0 23
v -2 0 19
v -2 0 18
v -2 0 11
v -2 0 10
v -2 0 5
v -2 11 18
v -2 11 17
v -2 11 12
v -2 11 11
v -2 12 19
v -2 12 18
v -2 12 17
v -2 12 16
v -2 12 13
v -2 12 12
v -2 12 11
v -2 12 10
v -2 13 18
v -2 13 17
v -2 13 16
v -2 13 13
v -2 13 12
v -2 13 11
v -2 14 17
v -2 14 12
v -2 16 23
v -2 16 5
v -2 19 23
v -2 19 5
v -2 20 23
v -2 20 5
v -1 20 22
v -1 20 6
v -1 21 22
v -1 21 6
v 0 17 4
v 0 17 -9
v 0 17 -17
v 0 19 4
v 0 19 -17
v 0 21 21
v 0 21 7
v 0 22 21
v 0 22 7
v 1 19 5
v 1 19 -16
v 1 20 5
v 1 20 -16
v 2 20 6
v 2 20 -15
v 2 21 6
v 2 21 -15
v 3 0 5
v 3 0 -16
v 3 16 5
v 3 16 -9
v 3 17 -9
v 3 17 -16
v 3 21 7
v 3 21 -14
v 3 22 7
v 3 22 -14
v -14 0 23
v -14 0 21
v -14 0 -7
v -14 0 -9
v -14 12 23
v -14 12 21
v -14 12 -7
v -14 12 -9
v -14 13 23
v -14 13 -9
v -11 13 23
v -11 13 -9
v -11 14 23
v -11 14 -9
v -10 15 14
v -10 15 -0
v -10 22 14
v -10 22 -0
v -8 14 23
v -8 14 -9
v -8 15 23
v -8 15 -9
v -5 15 23
v -5 15 -9
v -5 16 23
v -5 16 -9
v 15 21 21
v 15 21 -14
v 15 22 21
v 15 22 -14
v 17 20 22
v 17 20 -15
v 17 21 22
v 17 21 -15
v 18 0 23
v 18 0 -16
v 18 17 23
v 18 17 -16
v 18 19 23
v 18 19 -16
v 18 20 23
v 18 20 -16
v 19 17 24
v 19 17 -17
v 19 19 24
v 19 19 -17
v -3 17 24
v -3 19 24
v 19 17 24
v 19 19 24
v -16 0 23
v -16 12 23
v -16 13 23
v -15 13 23
v -15 14 23
v -14 0 23
v -14 12 23
v -14 13 23
v -12 14 23
v -12 15 23
v -11 13 23
v -11 14 23
v -9 15 23
v -9 16 23
v -8 14 23
v -8 15 23
v -6 16 23
v -6 17 23
v -5 15 23
v -5 16 23
v -3 17 23
v -2 0 23
v -2 16 23
v -2 17 23
v -2 19 23
v -2 20 23
v 18 0 23
v 18 17 23
v 18 19 23
v 18 20 23
v -1 20 22
v -1 21 22
v 17 20 22
v 17 21 22
v 0 21 21
v 0 22 21
v 15 21 21
v 15 22 21
v -3 0 19
v -3 12 19
v -2 0 19
v -2 12 19
v -3 12 18
v -3 13 18
v -2 12 18
v -2 13 18
v -3 13 17
v -3 14 17
v -2 13 17
v -2 14 17
v -11 15 14
v -11 22 14
v -10 15 14
v -10 22 14
v -3 12 13
v -3 13 13
v -2 12 13
v -2 13 13
v -3 11 12
v -3 12 12
v -2 11 12
v -2 12 12
v -3 0 11
v -3 11 11
v -2 0 11
v -2 11 11
v -16 0 -7
v -16 12 -7
v -14 0 -7
v -14 12 -7
v -16 0 21
v -16 12 21
v -14 0 21
v -14 12 21
v -3 0 18
v -3 11 18
v -2 0 18
v -2 11 18
v -3 11 17
v -3 12 17
v -2 11 17
v -2 12 17
v -3 12 16
v -3 13 16
v -2 12 16
v -2 13 16
v -3 13 12
v -3 14 12
v -2 13 12
v -2 14 12
v -3 12 11
v -3 13 11
v -2 12 11
v -2 13 11
v -3 0 10
v -3 12 10
v -2 0 10
v -2 12 10
v 0 21 7
v 0 22 7
v 3 21 7
v 3 22 7
v -1 20 6
v -1 21 6
v 2 20 6
v 2 21 6
v -2 0 5
v -2 16 5
v -2 19 5
v -2 20 5
v 1 19 5
v 1 20 5
v 3 0 5
v 3 16 5
v -3 17 4
v -3 19 4
v 0 17 4
v 0 19 4
v -11 15 -0
v -11 22 -0
v -10 15 -0
v -10 22 -0
v -16 0 -9
v -16 12 -9
v -16 13 -9
v -15 13 -9
v -15 14 -9
v -14 0 -9
v -14 12 -9
v -14 13 -9
v -12 14 -9
v -12 15 -9
v -11 13 -9
v -11 14 -9
v -9 15 -9
v -9 16 -9
v -8 14 -9
v -8 15 -9
v -6 16 -9
v -6 17 -9
v -5 15 -9
v -5 16 -9
v 0 17 -9
v 3 16 -9
v 3 17 -9
v 3 21 -14
v 3 22 -14
v 15 21 -14
v 15 22 -14
v 2 20 -15
v 2 21 -15
v 17 20 -15
v 17 21 -15
v 1 19 -16
v 1 20 -16
v 3 0 -16
v 3 17 -16
v 18 0 -16
v 18 17 -16
v 18 19 -16
v 18 20 -16
v 0 17 -17
v 0 19 -17
v 19 17 -17
v 19 19 -17
v -16 0 23
v -14 0 23
v -2 0 23
v 18 0 23
v -16 0 21
v -14 0 21
v -3 0 19
v -2 0 19
v -3 0 18
v -2 0 18
v -1 0 18
v -3 0 11
v -2 0 11
v -1 0 11
v -3 0 10
v -2 0 10
v -2 0 5
v 3 0 5
v -16 0 -7
v -14 0 -7
v -16 0 -9
v -14 0 -9
v 3 0 -16
v 18 0 -16
v -3 11 18
v -2 11 18
v -3 11 17
v -2 11 17
v -3 11 12
v -2 11 12
v -3 11 11
v -2 11 11
v -16 12 21
v -14 12 21
v -3 12 17
v -2 12 17
v -3 12 16
v -2 12 16
v -3 12 13
v -2 12 13
v -3 12 12
v -2 12 12
v -16 12 -7
v -14 12 -7
v -14 13 23
v -11 13 23
v -3 13 16
v -2 13 16
v -3 13 13
v -2 13 13
v -14 13 -9
v -11 13 -9
v -11 14 23
v -8 14 23
v -11 14 -9
v -8 14 -9
v -8 15 23
v -5 15 23
v -8 15 -9
v -5 15 -9
v -5 16 23
v -2 16 23
v -2 16 5
v 3 16 5
v -5 16 -9
v 3 16 -9
v -3 17 24
v 19 17 24
v -3 17 23
v -2 17 23
v 18 17 23
v 0 17 -9
v 3 17 -9
v 3 17 -16
v 18 17 -16
v 0 17 -17
v 19 17 -17
v -3 12 19
v -2 12 19
v -3 12 18
v -2 12 18
v -3 12 11
v -2 12 11
v -3 12 10
v -2 12 10
v -16 13 23
v -15 13 23
v -3 13 18
v -2 13 18
v -3 13 17
v -2 13 17
v -3 13 12
v -2 13 12
v -3 13 11
v -2 13 11
v -16 13 -9
v -15 13 -9
v -15 14 23
v -12 14 23
v -3 14 17
v -2 14 17
v -3 14 12
v -2 14 12
v -15 14 -9
v -12 14 -9
v -12 15 23
v -9 15 23
v -11 15 14
v -10 15 14
v -11 15 -0
v -10 15 -0
v -12 15 -9
v -9 15 -9
v -9 16 23
v -6 16 23
v -9 16 -9
v -6 16 -9
v -6 17 23
v -3 17 23
v -3 17 4
v 0 17 4
v -6 17 -9
v 0 17 -9
v -3 19 24
v 19 19 24
v -2 19 23
v 18 19 23
v -2 19 5
v 1 19 5
v -3 19 4
v 0 19 4
v 1 19 -16
v 18 19 -16
v 0 19 -17
v 19 19 -17
v -2 20 23
v 18 20 23
v -1 20 22
v 17 20 22
v -1 20 6
v 2 20 6
v -2 20 5
v 1 20 5
v 2 20 -15
v 17 20 -15
v 1 20 -16
v 18 20 -16
v -1 21 22
v 17 21 22
v 0 21 21
v 15 21 21
v 0 21 7
v 3 21 7
v -1 21 6
v 2 21 6
v 3 21 -14
v 15 21 -14
v 2 21 -15
v 17 21 -15
v 0 22 21
v 15 22 21
v -11 22 14
v -10 22 14
v 0 22 7
v 3 22 7
v -11 22 -0
v -10 22 -0
v 3 22 -14
v 15 22 -14

# faces
f 5/4/1 2/4/1 1/4/1
f 6/4/1 2/4/1 5/4/1
f 7/4/1 4/4/1 3/4/1
f 8/4/1 4/4/1 7/4/1
f 9/7/1 6/7/1 5/7/1
f 9/7/1 7/7/1 6/7/1
f 9/7/1 8/7/1 7/7/1
f 10/7/1 8/7/1 9/7/1
f 13/7/1 12/7/1 11/7/1
f 14/7/1 12/7/1 13/7/1
f 17/7/1 16/7/1 15/7/1
f 18/7/1 16/7/1 17/7/1
f 21/1/1 20/1/1 19/1/1
f 22/1/1 20/1/1 21/1/1
f 25/7/1 24/7/1 23/7/1
f 26/7/1 24/7/1 25/7/1
f 29/7/1 28/7/1 27/7/1
f 30/7/1 28/7/1 29/7/1
f 35/5/1 32/5/1 31/5/1
f 38/5/1 34/5/1 33/5/1
f 39/5/1 36/5/1 35/5/1
f 39/5/1 35/5/1 31/5/1
f 40/5/1 36/5/1 39/5/1
f 41/5/1 36/5/1 40/5/1
f 44/5/1 38/5/1 37/5/1
f 45/5/1 34/5/1 38/5/1
f 45/5/1 38/5/1 44/5/1
f 46/5/1 34/5/1 45/5/1
f 47/5/1 42/5/1 41/5/1
f 47/5/1 41/5/1 40/5/1
f 48/5/1 42/5/1 47/5/1
f 49/5/1 42/5/1 48/5/1
f 50/5/1 44/5/1 43/5/1
f 50/5/1 45/5/1 44/5/1
f 51/5/1 45/5/1 50/5/1
f 52/5/1 45/5/1 51/5/1
f 53/5/1 49/5/1 48/5/1
f 53/5/1 51/5/1 50/5/1
f 53/5/1 50/5/1 49/5/1
f 54/5/1 51/5/1 53/5/1
f 58/2/1 56/2/1 55/2/1
f 58/2/1 57/2/1 56/2/1
f 59/2/1 57/2/1 58/2/1
f 66/6/1 63/6/1 62/6/1
f 67/6/1 63/6/1 66/6/1
f 68/6/1 63/6/1 67/6/1
f 69/6/1 63/6/1 68/6/1
f 70/3/1 61/3/1 60/3/1
f 72/6/1 68/6/1 67/6/1
f 73/6/1 68/6/1 72/6/1
f 74/6/1 68/6/1 73/6/1
f 75/6/1 68/6/1 74/6/1
f 77/3/1 65/3/1 64/3/1
f 78/3/1 71/3/1 70/3/1
f 80/6/1 74/6/1 73/6/1
f 81/6/1 74/6/1 80/6/1
f 83/3/1 77/3/1 76/3/1
f 84/3/1 79/3/1 78/3/1
f 85/3/1 83/3/1 82/3/1
f 86/3/1 84/3/1 78/3/1
f 86/3/1 85/3/1 84/3/1
f 86/3/1 70/3/1 60/3/1
f 86/3/1 78/3/1 70/3/1
f 87/3/1 83/3/1 85/3/1
f 87/3/1 85/3/1 86/3/1
f 87/3/1 77/3/1 83/3/1
f 87/3/1 65/3/1 77/3/1
f 90/2/1 89/2/1 88/2/1
f 91/2/1 89/2/1 90/2/1
f 94/2/1 93/2/1 92/2/1
f 95/2/1 93/2/1 94/2/1
f 99/2/1 97/2/1 96/2/1
f 99/2/1 98/2/1 97/2/1
f 100/2/1 98/2/1 99/2/1
f 103/2/1 102/2/1 101/2/1
f 104/2/1 102/2/1 103/2/1
f 107/2/1 106/2/1 105/2/1
f 108/2/1 106/2/1 107/2/1
f 111/2/1 110/2/1 109/2/1
f 112/2/1 110/2/1 111/2/1
f 115/3/1 114/3/1 113/3/1
f 116/3/1 114/3/1 115/3/1
f 117/3/1 114/3/1 116/3/1
f 118/3/1 114/3/1 117/3/1
f 121/2/1 120/2/1 119/2/1
f 122/2/1 120/2/1 121/2/1
f 123/4/2 124/4/2 127/4/2
f 127/4/2 124/4/2 128/4/2
f 125/4/2 126/4/2 129/4/2
f 129/4/2 126/4/2 130/4/2
f 127/7/2 128/7/2 131/7/2
f 128/7/2 129/7/2 131/7/2
f 129/7/2 130/7/2 131/7/2
f 131/7/2 130/7/2 132/7/2
f 133/7/2 134/7/2 135/7/2
f 135/7/2 134/7/2 136/7/2
f 137/1/2 138/1/2 139/1/2
f 139/1/2 138/1/2 140/1/2
f 141/7/2 142/7/2 143/7/2
f 143/7/2 142/7/2 144/7/2
f 145/7/2 146/7/2 147/7/2
f 147/7/2 146/7/2 148/7/2
f 149/2/2 150/2/2 151/2/2
f 151/2/2 150/2/2 152/2/2
f 153/2/2 154/2/2 155/2/2
f 155/2/2 154/2/2 156/2/2
f 157/3/2 158/3/2 159/3/2
f 159/3/2 158/3/2 160/3/2
f 161/2/2 162/2/2 163/2/2
f 163/2/2 162/2/2 164/2/2
f 165/2/2 166/2/2 167/2/2
f 167/2/2 166/2/2 168/2/2
f 171/2/3 170/2/3 169/2/3
f 172/2/3 170/2/3 171/2/3
f 176/7/3 175/7/3 174/7/3
f 178/4/3 174/4/3 173/4/3
f 179/7/3 177/7/3 176/7/3
f 179/4/3 174/4/3 178/4/3
f 179/7/3 176/7/3 174/7/3
f 180/7/3 177/7/3 179/7/3
f 181/7/3 177/7/3 180/7/3
f 183/7/3 181/7/3 180/7/3
f 183/7/3 182/7/3 181/7/3
f 184/7/3 182/7/3 183/7/3
f 185/7/3 182/7/3 184/7/3
f 187/7/3 185/7/3 184/7/3
f 187/7/3 186/7/3 185/7/3
f 188/7/3 186/7/3 187/7/3
f 189/7/3 186/7/3 188/7/3
f 191/7/3 189/7/3 188/7/3
f 191/7/3 190/7/3 189/7/3
f 192/7/3 190/7/3 191/7/3
f 193/7/3 190/7/3 192/7/3
f 195/7/3 193/7/3 192/7/3
f 196/7/3 193/7/3 195/7/3
f 199/3/3 196/3/3 195/3/3
f 199/3/3 195/3/3 194/3/3
f 200/3/3 196/3/3 199/3/3
f 201/2/3 198/2/3 197/2/3
f 202/2/3 198/2/3 201/2/3
f 205/2/3 204/2/3 203/2/3
f 206/2/3 204/2/3 205/2/3
f 209/2/3 208/2/3 207/2/3
f 210/2/3 208/2/3 209/2/3
f 213/5/3 212/5/3 211/5/3
f 214/5/3 212/5/3 213/5/3
f 217/5/3 216/5/3 215/5/3
f 218/5/3 216/5/3 217/5/3
f 221/5/3 220/5/3 219/5/3
f 222/5/3 220/5/3 221/5/3
f 225/1/3 224/1/3 223/1/3
f 226/1/3 224/1/3 225/1/3
f 229/5/3 228/5/3 227/5/3
f 230/5/3 228/5/3 229/5/3
f 233/5/3 232/5/3 231/5/3
f 234/5/3 232/5/3 233/5/3
f 237/5/3 236/5/3 235/5/3
f 238/5/3 236/5/3 237/5/3
f 241/4/3 240/4/3 239/4/3
f 242/4/3 240/4/3 241/4/3
f 243/4/4 244/4/4 245/4/4
f 245/4/4 244/4/4 246/4/4
f 247/5/4 248/5/4 249/5/4
f 249/5/4 248/5/4 250/5/4
f 251/5/4 252/5/4 253/5/4
f 253/5/4 252/5/4 254/5/4
f 255/5/4 256/5/4 257/5/4
f 257/5/4 256/5/4 258/5/4
f 259/5/4 260/5/4 261/5/4
f 261/5/4 260/5/4 262/5/4
f 263/5/4 264/5/4 265/5/4
f 265/5/4 264/5/4 266/5/4
f 267/5/4 268/5/4 269/5/4
f 269/5/4 268/5/4 270/5/4
f 271/2/4 272/2/4 273/2/4
f 273/2/4 272/2/4 274/2/4
f 275/2/4 276/2/4 277/2/4
f 277/2/4 276/2/4 278/2/4
f 281/2/4 282/2/4 283/2/4
f 283/2/4 282/2/4 284/2/4
f 279/3/4 280/3/4 285/3/4
f 285/3/4 280/3/4 286/3/4
f 287/2/4 288/2/4 289/2/4
f 289/2/4 288/2/4 290/2/4
f 291/1/4 292/1/4 293/1/4
f 293/1/4 292/1/4 294/1/4
f 296/7/4 297/7/4 298/7/4
f 295/4/4 296/4/4 300/4/4
f 298/7/4 299/7/4 301/7/4
f 300/4/4 296/4/4 301/4/4
f 296/7/4 298/7/4 301/7/4
f 301/7/4 299/7/4 302/7/4
f 302/7/4 299/7/4 303/7/4
f 302/7/4 303/7/4 305/7/4
f 303/7/4 304/7/4 305/7/4
f 305/7/4 304/7/4 306/7/4
f 306/7/4 304/7/4 307/7/4
f 306/7/4 307/7/4 309/7/4
f 307/7/4 308/7/4 309/7/4
f 309/7/4 308/7/4 310/7/4
f 310/7/4 308/7/4 311/7/4
f 310/7/4 311/7/4 313/7/4
f 311/7/4 312/7/4 313/7/4
f 313/7/4 312/7/4 314/7/4
f 314/7/4 312/7/4 315/7/4
f 314/7/4 315/7/4 316/7/4
f 316/7/4 315/7/4 317/7/4
f 318/2/4 319/2/4 320/2/4
f 320/2/4 319/2/4 321/2/4
f 322/2/4 323/2/4 324/2/4
f 324/2/4 323/2/4 325/2/4
f 328/3/4 329/3/4 330/3/4
f 330/3/4 329/3/4 331/3/4
f 326/2/4 327/2/4 332/2/4
f 332/2/4 327/2/4 333/2/4
f 334/2/4 335/2/4 336/2/4
f 336/2/4 335/2/4 337/2/4
f 342/4/5 339/4/5 338/4/5
f 343/4/5 339/4/5 342/4/5
f 345/3/5 341/3/5 340/3/5
f 346/5/5 345/5/5 344/5/5
f 347/3/5 341/3/5 345/3/5
f 347/5/5 345/5/5 346/5/5
f 348/3/5 341/3/5 347/3/5
f 350/6/5 348/6/5 347/6/5
f 351/3/5 341/3/5 348/3/5
f 351/6/5 348/6/5 350/6/5
f 352/5/5 350/5/5 349/5/5
f 353/3/5 351/3/5 350/3/5
f 353/5/5 350/5/5 352/5/5
f 354/3/5 351/3/5 353/3/5
f 355/3/5 341/3/5 351/3/5
f 355/3/5 351/3/5 354/3/5
f 358/4/5 357/4/5 356/4/5
f 359/4/5 357/4/5 358/4/5
f 360/3/5 341/3/5 355/3/5
f 361/3/5 341/3/5 360/3/5
f 364/5/5 363/5/5 362/5/5
f 365/5/5 363/5/5 364/5/5
f 368/5/5 367/5/5 366/5/5
f 369/5/5 367/5/5 368/5/5
f 374/5/5 373/5/5 372/5/5
f 375/5/5 373/5/5 374/5/5
f 378/5/5 377/5/5 376/5/5
f 379/5/5 377/5/5 378/5/5
f 380/7/5 371/7/5 370/7/5
f 381/7/5 371/7/5 380/7/5
f 386/5/5 385/5/5 384/5/5
f 387/5/5 385/5/5 386/5/5
f 388/7/5 383/7/5 382/7/5
f 389/7/5 383/7/5 388/7/5
f 392/7/5 391/7/5 390/7/5
f 393/7/5 391/7/5 392/7/5
f 396/7/5 395/7/5 394/7/5
f 397/7/5 395/7/5 396/7/5
f 400/7/5 399/7/5 398/7/5
f 402/7/5 400/7/5 398/7/5
f 402/7/5 401/7/5 400/7/5
f 403/7/5 401/7/5 402/7/5
f 406/2/5 405/2/5 404/2/5
f 407/2/5 405/2/5 406/2/5
f 408/2/5 405/2/5 407/2/5
f 411/2/5 410/2/5 409/2/5
f 412/2/5 405/2/5 408/2/5
f 413/2/5 411/2/5 409/2/5
f 413/2/5 412/2/5 411/2/5
f 414/2/5 405/2/5 412/2/5
f 414/2/5 412/2/5 413/2/5
f 415/5/6 416/5/6 417/5/6
f 417/5/6 416/5/6 418/5/6
f 419/5/6 420/5/6 421/5/6
f 421/5/6 420/5/6 422/5/6
f 425/5/6 426/5/6 427/5/6
f 427/5/6 426/5/6 428/5/6
f 429/5/6 430/5/6 431/5/6
f 431/5/6 430/5/6 432/5/6
f 423/7/6 424/7/6 433/7/6
f 433/7/6 424/7/6 434/7/6
f 437/5/6 438/5/6 439/5/6
f 439/5/6 438/5/6 440/5/6
f 435/7/6 436/7/6 441/7/6
f 441/7/6 436/7/6 442/7/6
f 443/7/6 444/7/6 445/7/6
f 445/7/6 444/7/6 446/7/6
f 443/7/6 445/7/6 447/7/6
f 446/7/6 444/7/6 448/7/6
f 443/7/6 447/7/6 449/7/6
f 447/7/6 448/7/6 449/7/6
f 448/7/6 444/7/6 450/7/6
f 449/7/6 448/7/6 450/7/6
f 451/7/6 452/7/6 453/7/6
f 453/7/6 452/7/6 454/7/6
f 455/7/6 456/7/6 457/7/6
f 455/7/6 457/7/6 459/7/6
f 457/7/6 458/7/6 459/7/6
f 459/7/6 458/7/6 460/7/6
f 461/2/6 462/2/6 463/2/6
f 463/2/6 462/2/6 464/2/6
f 461/2/6 463/2/6 465/2/6
f 461/2/6 465/2/6 467/2/6
f 465/2/6 466/2/6 467/2/6
f 467/2/6 466/2/6 468/2/6
f 468/2/6 466/2/6 469/2/6
f 464/2/6 462/2/6 470/2/6
f 468/2/6 469/2/6 471/2/6
f 469/2/6 470/2/6 471/2/6
f 470/2/6 462/2/6 472/2/6
f 471/2/6 470/2/6 472/2/6
f 473/2/6 474/2/6 475/2/6
f 475/2/6 474/2/6 476/2/6
f 473/2/6 475/2/6 477/2/6
f 473/2/6 477/2/6 479/2/6
f 477/2/6 478/2/6 479/2/6
f 479/2/6 478/2/6 480/2/6
f 480/2/6 478/2/6 481/2/6
f 476/2/6 474/2/6 482/2/6
f 480/2/6 481/2/6 483/2/6
f 481/2/6 482/2/6 483/2/6
f 482/2/6 474/2/6 484/2/6
f 483/2/6 482/2/6 484/2/6
f 485/2/6 486/2/6 487/2/6
f 487/2/6 486/2/6 488/2/6
f 485/2/6 487/2/6 489/2/6
f 485/2/6 489/2/6 491/2/6
f 489/2/6 490/2/6 491/2/6
f 491/2/6 490/2/6 492/2/6
f 492/2/6 490/2/6 493/2/6
f 488/2/6 486/2/6 494/2/6
f 492/2/6 493/2/6 495/2/6
f 493/2/6 494/2/6 495/2/6
f 494/2/6 486/2/6 496/2/6
f 495/2/6 494/2/6 496/2/6
f 497/2/6 498/2/6 501/2/6
f 501/2/6 498/2/6 502/2/6
f 499/1/6 500/1/6 503/1/6
f 503/1/6 500/1/6 504/1/6
f 502/2/6 498/2/6 505/2/6
f 505/2/6 498/2/6 506/2/6
