# MagicaVoxel @ ephtracy

# material
mtllib market3.mtl
usemtl palette

# normals
vn -1 0 0
vn 1 0 0
vn 0 0 1
vn 0 0 -1
vn 0 -1 0
vn 0 1 0

# texcoords
vt 0.173828 0.5
vt 0.205078 0.5
vt 0.361328 0.5
vt 0.373047 0.5
vt 0.560547 0.5
vt 0.615234 0.5

# verts
v -17.5 17 22.5
v -17.5 17 4.5
v -17.5 18 22.5
v -17.5 18 4.5
v -16.5 0 21.5
v -16.5 0 6.5
v -16.5 0 -2.5
v -16.5 0 -4.5
v -16.5 13 -1.5
v -16.5 13 -2.5
v -16.5 13 -4.5
v -16.5 14 0.5
v -16.5 14 -1.5
v -16.5 14 -3.5
v -16.5 14 -4.5
v -16.5 15 6.5
v -16.5 15 0.5
v -16.5 15 -0.5
v -16.5 15 -3.5
v -16.5 16 6.5
v -16.5 16 -0.5
v -16.5 17 21.5
v -16.5 17 6.5
v -16.5 18 21.5
v -16.5 18 5.5
v -16.5 19 21.5
v -16.5 19 5.5
v -15.5 19 20.5
v -15.5 19 6.5
v -15.5 20 20.5
v -15.5 20 6.5
v -14.5 13 -4.5
v -14.5 13 -5.5
v -14.5 14 -4.5
v -14.5 14 -5.5
v -14.5 20 19.5
v -14.5 20 7.5
v -14.5 21 19.5
v -14.5 21 7.5
v -12.5 0 6.5
v -12.5 0 5.5
v -12.5 11 6.5
v -12.5 11 5.5
v -12.5 13 -5.5
v -12.5 13 -6.5
v -12.5 14 -5.5
v -12.5 14 -6.5
v -10.5 13 -6.5
v -10.5 13 -7.5
v -10.5 14 -6.5
v -10.5 14 -7.5
v -9.5 14 -3.5
v -9.5 14 -4.5
v -9.5 15 -0.5
v -9.5 15 -1.5
v -9.5 15 -3.5
v -9.5 15 -4.5
v -9.5 16 -0.5
v -9.5 16 -1.5
v -8.5 14 -4.5
v -8.5 14 -5.5
v -8.5 15 -4.5
v -8.5 15 -5.5
v -7.5 13 -7.5
v -7.5 13 -9.5
v -7.5 14 -7.5
v -7.5 14 -9.5
v -7.5 15 -1.5
v -7.5 15 -2.5
v -7.5 16 -1.5
v -7.5 16 -2.5
v -6.5 13 -9.5
v -6.5 13 -11.5
v -6.5 14 -9.5
v -6.5 14 -11.5
v -5.5 0 -13.5
v -5.5 0 -15.5
v -5.5 13 -11.5
v -5.5 13 -13.5
v -5.5 13 -15.5
v -5.5 14 -5.5
v -5.5 14 -6.5
v -5.5 14 -11.5
v -5.5 14 -15.5
v -5.5 15 -2.5
v -5.5 15 -3.5
v -5.5 15 -5.5
v -5.5 15 -6.5
v -5.5 16 -2.5
v -5.5 16 -3.5
v -4.5 14 -6.5
v -4.5 14 -8.5
v -4.5 15 -3.5
v -4.5 15 -4.5
v -4.5 15 -6.5
v -4.5 15 -8.5
v -4.5 16 -3.5
v -4.5 16 -4.5
v -3.5 14 -8.5
v -3.5 14 -15.5
v -3.5 15 -8.5
v -3.5 15 -15.5
v -2.5 15 -4.5
v -2.5 15 -5.5
v -2.5 16 -4.5
v -2.5 16 -5.5
v -1.5 15 -5.5
v -1.5 15 -6.5
v -1.5 16 -5.5
v -1.5 16 -6.5
v -0.5 15 -6.5
v -0.5 15 -15.5
v -0.5 16 -6.5
v -0.5 16 -15.5
v 1.5 0 6.5
v 1.5 0 5.5
v 1.5 10 6.5
v 1.5 10 5.5
v 4.5 17 4.5
v 4.5 17 -16.5
v 4.5 18 4.5
v 4.5 18 -16.5
v 5.5 18 5.5
v 5.5 18 -15.5
v 5.5 19 5.5
v 5.5 19 -15.5
v 6.5 0 6.5
v 6.5 0 -15.5
v 6.5 15 6.5
v 6.5 15 -15.5
v 6.5 16 6.5
v 6.5 16 -15.5
v 6.5 17 6.5
v 6.5 17 -15.5
v 6.5 19 6.5
v 6.5 19 -14.5
v 6.5 20 6.5
v 6.5 20 -14.5
v 7.5 20 7.5
v 7.5 20 -13.5
v 7.5 21 7.5
v 7.5 21 -13.5
v -14.5 0 -2.5
v -14.5 0 -4.5
v -14.5 13 -2.5
v -14.5 13 -4.5
v -13.5 13 -1.5
v -13.5 13 -3.5
v -13.5 14 -1.5
v -13.5 14 -3.5
v -11.5 0 6.5
v -11.5 0 5.5
v -11.5 10 6.5
v -11.5 10 5.5
v -4.5 13 -3.5
v -4.5 13 -7.5
v -4.5 14 -3.5
v -4.5 14 -7.5
v -3.5 0 -13.5
v -3.5 0 -15.5
v -3.5 13 -7.5
v -3.5 13 -13.5
v -3.5 13 -15.5
v -3.5 14 -7.5
v -3.5 14 -15.5
v -2.5 14 0.5
v -2.5 14 -3.5
v -2.5 15 0.5
v -2.5 15 -3.5
v 0.5 14 -3.5
v 0.5 14 -15.5
v 0.5 15 -3.5
v 0.5 15 -15.5
v 2.5 0 6.5
v 2.5 0 5.5
v 2.5 11 6.5
v 2.5 11 5.5
v 19.5 20 19.5
v 19.5 20 -13.5
v 19.5 21 19.5
v 19.5 21 -13.5
v 20.5 19 20.5
v 20.5 19 -14.5
v 20.5 20 20.5
v 20.5 20 -14.5
v 21.5 0 21.5
v 21.5 0 -15.5
v 21.5 17 21.5
v 21.5 17 -15.5
v 21.5 18 21.5
v 21.5 18 -15.5
v 21.5 19 21.5
v 21.5 19 -15.5
v 22.5 17 22.5
v 22.5 17 -16.5
v 22.5 18 22.5
v 22.5 18 -16.5
v -17.5 17 22.5
v -17.5 18 22.5
v 22.5 17 22.5
v 22.5 18 22.5
v -16.5 0 21.5
v -16.5 17 21.5
v -16.5 18 21.5
v -16.5 19 21.5
v 21.5 0 21.5
v 21.5 17 21.5
v 21.5 18 21.5
v 21.5 19 21.5
v -15.5 19 20.5
v -15.5 20 20.5
v 20.5 19 20.5
v 20.5 20 20.5
v -14.5 20 19.5
v -14.5 21 19.5
v 19.5 20 19.5
v 19.5 21 19.5
v -16.5 14 0.5
v -16.5 15 0.5
v -2.5 14 0.5
v -2.5 15 0.5
v -16.5 13 -1.5
v -16.5 14 -1.5
v -13.5 13 -1.5
v -13.5 14 -1.5
v -16.5 0 -2.5
v -16.5 13 -2.5
v -14.5 0 -2.5
v -14.5 13 -2.5
v -13.5 13 -3.5
v -13.5 14 -3.5
v -4.5 13 -3.5
v -4.5 14 -3.5
v -2.5 14 -3.5
v -2.5 15 -3.5
v 0.5 14 -3.5
v 0.5 15 -3.5
v -4.5 13 -7.5
v -4.5 14 -7.5
v -3.5 13 -7.5
v -3.5 14 -7.5
v -5.5 0 -13.5
v -5.5 13 -13.5
v -3.5 0 -13.5
v -3.5 13 -13.5
v -14.5 20 7.5
v -14.5 21 7.5
v 7.5 20 7.5
v 7.5 21 7.5
v -16.5 0 6.5
v -16.5 15 6.5
v -16.5 16 6.5
v -16.5 17 6.5
v -15.5 19 6.5
v -15.5 20 6.5
v -12.5 0 6.5
v -12.5 11 6.5
v -11.5 0 6.5
v -11.5 10 6.5
v -5.5 0 6.5
v -5.5 10 6.5
v -4.5 0 6.5
v -4.5 10 6.5
v 1.5 0 6.5
v 1.5 10 6.5
v 2.5 0 6.5
v 2.5 11 6.5
v 6.5 0 6.5
v 6.5 15 6.5
v 6.5 16 6.5
v 6.5 17 6.5
v 6.5 19 6.5
v 6.5 20 6.5
v -16.5 18 5.5
v -16.5 19 5.5
v -12.5 0 5.5
v -12.5 11 5.5
v -11.5 0 5.5
v -11.5 10 5.5
v 1.5 0 5.5
v 1.5 10 5.5
v 2.5 0 5.5
v 2.5 11 5.5
v 5.5 18 5.5
v 5.5 19 5.5
v -17.5 17 4.5
v -17.5 18 4.5
v 4.5 17 4.5
v 4.5 18 4.5
v -16.5 15 -0.5
v -16.5 16 -0.5
v -9.5 15 -0.5
v -9.5 16 -0.5
v -9.5 15 -1.5
v -9.5 16 -1.5
v -7.5 15 -1.5
v -7.5 16 -1.5
v -7.5 15 -2.5
v -7.5 16 -2.5
v -5.5 15 -2.5
v -5.5 16 -2.5
v -16.5 14 -3.5
v -16.5 15 -3.5
v -9.5 14 -3.5
v -9.5 15 -3.5
v -5.5 15 -3.5
v -5.5 16 -3.5
v -4.5 15 -3.5
v -4.5 16 -3.5
v -16.5 0 -4.5
v -16.5 13 -4.5
v -16.5 14 -4.5
v -14.5 0 -4.5
v -14.5 13 -4.5
v -14.5 14 -4.5
v -9.5 14 -4.5
v -9.5 15 -4.5
v -8.5 14 -4.5
v -8.5 15 -4.5
v -4.5 15 -4.5
v -4.5 16 -4.5
v -2.5 15 -4.5
v -2.5 16 -4.5
v -14.5 13 -5.5
v -14.5 14 -5.5
v -12.5 13 -5.5
v -12.5 14 -5.5
v -8.5 14 -5.5
v -8.5 15 -5.5
v -5.5 14 -5.5
v -5.5 15 -5.5
v -2.5 15 -5.5
v -2.5 16 -5.5
v -1.5 15 -5.5
v -1.5 16 -5.5
v -12.5 13 -6.5
v -12.5 14 -6.5
v -10.5 13 -6.5
v -10.5 14 -6.5
v -5.5 14 -6.5
v -5.5 15 -6.5
v -4.5 14 -6.5
v -4.5 15 -6.5
v -1.5 15 -6.5
v -1.5 16 -6.5
v -0.5 15 -6.5
v -0.5 16 -6.5
v -10.5 13 -7.5
v -10.5 14 -7.5
v -7.5 13 -7.5
v -7.5 14 -7.5
v -4.5 14 -8.5
v -4.5 15 -8.5
v -3.5 14 -8.5
v -3.5 15 -8.5
v -7.5 13 -9.5
v -7.5 14 -9.5
v -6.5 13 -9.5
v -6.5 14 -9.5
v -6.5 13 -11.5
v -6.5 14 -11.5
v -5.5 13 -11.5
v -5.5 14 -11.5
v 7.5 20 -13.5
v 7.5 21 -13.5
v 19.5 20 -13.5
v 19.5 21 -13.5
v 6.5 19 -14.5
v 6.5 20 -14.5
v 20.5 19 -14.5
v 20.5 20 -14.5
v -5.5 0 -15.5
v -5.5 13 -15.5
v -5.5 14 -15.5
v -3.5 0 -15.5
v -3.5 13 -15.5
v -3.5 14 -15.5
v -3.5 15 -15.5
v -0.5 15 -15.5
v -0.5 16 -15.5
v 0.5 14 -15.5
v 0.5 15 -15.5
v 5.5 18 -15.5
v 5.5 19 -15.5
v 6.5 0 -15.5
v 6.5 15 -15.5
v 6.5 16 -15.5
v 6.5 17 -15.5
v 21.5 0 -15.5
v 21.5 17 -15.5
v 21.5 18 -15.5
v 21.5 19 -15.5
v 4.5 17 -16.5
v 4.5 18 -16.5
v 22.5 17 -16.5
v 22.5 18 -16.5
v -16.5 0 21.5
v 21.5 0 21.5
v -11.5 0 7.5
v -5.5 0 7.5
v -4.5 0 7.5
v 1.5 0 7.5
v -16.5 0 6.5
v -12.5 0 6.5
v -11.5 0 6.5
v -5.5 0 6.5
v -4.5 0 6.5
v 1.5 0 6.5
v 2.5 0 6.5
v 6.5 0 6.5
v -12.5 0 5.5
v -11.5 0 5.5
v 1.5 0 5.5
v 2.5 0 5.5
v -16.5 0 -2.5
v -14.5 0 -2.5
v -16.5 0 -4.5
v -14.5 0 -4.5
v -5.5 0 -13.5
v -3.5 0 -13.5
v -5.5 0 -15.5
v -3.5 0 -15.5
v 6.5 0 -15.5
v 21.5 0 -15.5
v -11.5 10 6.5
v -5.5 10 6.5
v -4.5 10 6.5
v 1.5 10 6.5
v -11.5 10 5.5
v 1.5 10 5.5
v -16.5 13 -1.5
v -13.5 13 -1.5
v -16.5 13 -2.5
v -14.5 13 -2.5
v -13.5 13 -3.5
v -4.5 13 -3.5
v -14.5 13 -4.5
v -14.5 13 -5.5
v -12.5 13 -5.5
v -12.5 13 -6.5
v -10.5 13 -6.5
v -10.5 13 -7.5
v -7.5 13 -7.5
v -4.5 13 -7.5
v -3.5 13 -7.5
v -7.5 13 -9.5
v -6.5 13 -9.5
v -6.5 13 -11.5
v -5.5 13 -11.5
v -5.5 13 -13.5
v -3.5 13 -13.5
v -16.5 14 0.5
v -2.5 14 0.5
v -16.5 14 -1.5
v -13.5 14 -1.5
v -13.5 14 -3.5
v -4.5 14 -3.5
v -2.5 14 -3.5
v 0.5 14 -3.5
v -4.5 14 -7.5
v -3.5 14 -7.5
v -3.5 14 -15.5
v 0.5 14 -15.5
v -16.5 15 6.5
v 6.5 15 6.5
v -16.5 15 0.5
v -2.5 15 0.5
v -2.5 15 -3.5
v 0.5 15 -3.5
v 0.5 15 -15.5
v 6.5 15 -15.5
v -17.5 17 22.5
v 22.5 17 22.5
v -16.5 17 21.5
v 21.5 17 21.5
v -16.5 17 6.5
v 6.5 17 6.5
v -17.5 17 4.5
v 4.5 17 4.5
v 6.5 17 -15.5
v 21.5 17 -15.5
v 4.5 17 -16.5
v 22.5 17 -16.5
v -12.5 11 6.5
v 2.5 11 6.5
v -12.5 11 5.5
v 2.5 11 5.5
v -16.5 14 -3.5
v -9.5 14 -3.5
v -16.5 14 -4.5
v -14.5 14 -4.5
v -9.5 14 -4.5
v -8.5 14 -4.5
v -14.5 14 -5.5
v -12.5 14 -5.5
v -8.5 14 -5.5
v -5.5 14 -5.5
v -12.5 14 -6.5
v -10.5 14 -6.5
v -5.5 14 -6.5
v -4.5 14 -6.5
v -10.5 14 -7.5
v -7.5 14 -7.5
v -4.5 14 -8.5
v -3.5 14 -8.5
v -7.5 14 -9.5
v -6.5 14 -9.5
v -6.5 14 -11.5
v -5.5 14 -11.5
v -5.5 14 -15.5
v -3.5 14 -15.5
v -16.5 15 -0.5
v -9.5 15 -0.5
v -9.5 15 -1.5
v -7.5 15 -1.5
v -7.5 15 -2.5
v -5.5 15 -2.5
v -16.5 15 -3.5
v -9.5 15 -3.5
v -5.5 15 -3.5
v -4.5 15 -3.5
v -9.5 15 -4.5
v -8.5 15 -4.5
v -4.5 15 -4.5
v -2.5 15 -4.5
v -8.5 15 -5.5
v -5.5 15 -5.5
v -2.5 15 -5.5
v -1.5 15 -5.5
v -5.5 15 -6.5
v -4.5 15 -6.5
v -1.5 15 -6.5
v -0.5 15 -6.5
v -4.5 15 -8.5
v -3.5 15 -8.5
v -3.5 15 -15.5
v -0.5 15 -15.5
v -16.5 16 6.5
v 6.5 16 6.5
v -16.5 16 -0.5
v -9.5 16 -0.5
v -9.5 16 -1.5
v -7.5 16 -1.5
v -7.5 16 -2.5
v -5.5 16 -2.5
v -5.5 16 -3.5
v -4.5 16 -3.5
v -4.5 16 -4.5
v -2.5 16 -4.5
v -2.5 16 -5.5
v -1.5 16 -5.5
v -1.5 16 -6.5
v -0.5 16 -6.5
v -0.5 16 -15.5
v 6.5 16 -15.5
v -17.5 18 22.5
v 22.5 18 22.5
v -16.5 18 21.5
v 21.5 18 21.5
v -16.5 18 5.5
v 5.5 18 5.5
v -17.5 18 4.5
v 4.5 18 4.5
v 5.5 18 -15.5
v 21.5 18 -15.5
v 4.5 18 -16.5
v 22.5 18 -16.5
v -16.5 19 21.5
v 21.5 19 21.5
v -15.5 19 20.5
v 20.5 19 20.5
v -15.5 19 6.5
v 6.5 19 6.5
v -16.5 19 5.5
v 5.5 19 5.5
v 6.5 19 -14.5
v 20.5 19 -14.5
v 5.5 19 -15.5
v 21.5 19 -15.5
v -15.5 20 20.5
v 20.5 20 20.5
v -14.5 20 19.5
v 19.5 20 19.5
v -14.5 20 7.5
v 7.5 20 7.5
v -15.5 20 6.5
v 6.5 20 6.5
v 7.5 20 -13.5
v 19.5 20 -13.5
v 6.5 20 -14.5
v 20.5 20 -14.5
v -14.5 21 19.5
v 19.5 21 19.5
v -14.5 21 7.5
v 7.5 21 7.5
v 7.5 21 -13.5
v 19.5 21 -13.5

# faces
f 3/3/1 2/3/1 1/3/1
f 4/3/1 2/3/1 3/3/1
f 10/4/1 8/4/1 7/4/1
f 11/4/1 8/4/1 10/4/1
f 13/6/1 10/6/1 9/6/1
f 13/6/1 11/6/1 10/6/1
f 14/6/1 11/6/1 13/6/1
f 15/6/1 11/6/1 14/6/1
f 16/1/1 6/1/1 5/1/1
f 17/6/1 13/6/1 12/6/1
f 17/6/1 14/6/1 13/6/1
f 18/6/1 14/6/1 17/6/1
f 19/6/1 14/6/1 18/6/1
f 20/1/1 16/1/1 5/1/1
f 20/6/1 17/6/1 16/6/1
f 20/6/1 18/6/1 17/6/1
f 21/6/1 18/6/1 20/6/1
f 22/1/1 20/1/1 5/1/1
f 23/1/1 20/1/1 22/1/1
f 26/3/1 25/3/1 24/3/1
f 27/3/1 25/3/1 26/3/1
f 30/3/1 29/3/1 28/3/1
f 31/3/1 29/3/1 30/3/1
f 34/6/1 33/6/1 32/6/1
f 35/6/1 33/6/1 34/6/1
f 38/3/1 37/3/1 36/3/1
f 39/3/1 37/3/1 38/3/1
f 42/5/1 41/5/1 40/5/1
f 43/5/1 41/5/1 42/5/1
f 46/6/1 45/6/1 44/6/1
f 47/6/1 45/6/1 46/6/1
f 50/6/1 49/6/1 48/6/1
f 51/6/1 49/6/1 50/6/1
f 56/6/1 53/6/1 52/6/1
f 57/6/1 53/6/1 56/6/1
f 58/6/1 55/6/1 54/6/1
f 59/6/1 55/6/1 58/6/1
f 62/6/1 61/6/1 60/6/1
f 63/6/1 61/6/1 62/6/1
f 66/6/1 65/6/1 64/6/1
f 67/6/1 65/6/1 66/6/1
f 70/6/1 69/6/1 68/6/1
f 71/6/1 69/6/1 70/6/1
f 74/6/1 73/6/1 72/6/1
f 75/6/1 73/6/1 74/6/1
f 79/4/1 77/4/1 76/4/1
f 80/4/1 77/4/1 79/4/1
f 83/6/1 79/6/1 78/6/1
f 83/6/1 80/6/1 79/6/1
f 84/6/1 80/6/1 83/6/1
f 87/6/1 82/6/1 81/6/1
f 88/6/1 82/6/1 87/6/1
f 89/6/1 86/6/1 85/6/1
f 90/6/1 86/6/1 89/6/1
f 95/6/1 92/6/1 91/6/1
f 96/6/1 92/6/1 95/6/1
f 97/6/1 94/6/1 93/6/1
f 98/6/1 94/6/1 97/6/1
f 101/6/1 100/6/1 99/6/1
f 102/6/1 100/6/1 101/6/1
f 105/6/1 104/6/1 103/6/1
f 106/6/1 104/6/1 105/6/1
f 109/6/1 108/6/1 107/6/1
f 110/6/1 108/6/1 109/6/1
f 113/6/1 112/6/1 111/6/1
f 114/6/1 112/6/1 113/6/1
f 117/5/1 116/5/1 115/5/1
f 118/5/1 116/5/1 117/5/1
f 121/3/1 120/3/1 119/3/1
f 122/3/1 120/3/1 121/3/1
f 125/3/1 124/3/1 123/3/1
f 126/3/1 124/3/1 125/3/1
f 129/1/1 128/1/1 127/1/1
f 130/1/1 128/1/1 129/1/1
f 133/1/1 132/1/1 131/1/1
f 134/1/1 132/1/1 133/1/1
f 137/3/1 136/3/1 135/3/1
f 138/3/1 136/3/1 137/3/1
f 141/3/1 140/3/1 139/3/1
f 142/3/1 140/3/1 141/3/1
f 143/4/2 144/4/2 145/4/2
f 145/4/2 144/4/2 146/4/2
f 147/6/2 148/6/2 149/6/2
f 149/6/2 148/6/2 150/6/2
f 151/5/2 152/5/2 153/5/2
f 153/5/2 152/5/2 154/5/2
f 155/6/2 156/6/2 157/6/2
f 157/6/2 156/6/2 158/6/2
f 159/4/2 160/4/2 162/4/2
f 162/4/2 160/4/2 163/4/2
f 161/6/2 162/6/2 164/6/2
f 162/6/2 163/6/2 164/6/2
f 164/6/2 163/6/2 165/6/2
f 166/6/2 167/6/2 168/6/2
f 168/6/2 167/6/2 169/6/2
f 170/6/2 171/6/2 172/6/2
f 172/6/2 171/6/2 173/6/2
f 174/5/2 175/5/2 176/5/2
f 176/5/2 175/5/2 177/5/2
f 178/3/2 179/3/2 180/3/2
f 180/3/2 179/3/2 181/3/2
f 182/3/2 183/3/2 184/3/2
f 184/3/2 183/3/2 185/3/2
f 186/1/2 187/1/2 188/1/2
f 188/1/2 187/1/2 189/1/2
f 190/3/2 191/3/2 192/3/2
f 192/3/2 191/3/2 193/3/2
f 194/3/2 195/3/2 196/3/2
f 196/3/2 195/3/2 197/3/2
f 200/3/3 199/3/3 198/3/3
f 201/3/3 199/3/3 200/3/3
f 206/1/3 203/1/3 202/1/3
f 207/1/3 203/1/3 206/1/3
f 208/3/3 205/3/3 204/3/3
f 209/3/3 205/3/3 208/3/3
f 212/3/3 211/3/3 210/3/3
f 213/3/3 211/3/3 212/3/3
f 216/3/3 215/3/3 214/3/3
f 217/3/3 215/3/3 216/3/3
f 220/6/3 219/6/3 218/6/3
f 221/6/3 219/6/3 220/6/3
f 224/6/3 223/6/3 222/6/3
f 225/6/3 223/6/3 224/6/3
f 228/4/3 227/4/3 226/4/3
f 229/4/3 227/4/3 228/4/3
f 232/6/3 231/6/3 230/6/3
f 233/6/3 231/6/3 232/6/3
f 236/6/3 235/6/3 234/6/3
f 237/6/3 235/6/3 236/6/3
f 240/6/3 239/6/3 238/6/3
f 241/6/3 239/6/3 240/6/3
f 244/4/3 243/4/3 242/4/3
f 245/4/3 243/4/3 244/4/3
f 246/3/4 247/3/4 248/3/4
f 248/3/4 247/3/4 249/3/4
f 250/1/4 251/1/4 256/1/4
f 256/1/4 251/1/4 257/1/4
f 258/2/4 259/2/4 260/2/4
f 260/2/4 259/2/4 261/2/4
f 260/5/4 261/5/4 262/5/4
f 262/5/4 261/5/4 263/5/4
f 262/2/4 263/2/4 264/2/4
f 264/2/4 263/2/4 265/2/4
f 257/1/4 251/1/4 267/1/4
f 266/1/4 267/1/4 268/1/4
f 267/1/4 251/1/4 269/1/4
f 268/1/4 267/1/4 269/1/4
f 252/1/4 253/1/4 270/1/4
f 270/1/4 253/1/4 271/1/4
f 254/3/4 255/3/4 272/3/4
f 272/3/4 255/3/4 273/3/4
f 276/5/4 277/5/4 278/5/4
f 278/5/4 277/5/4 279/5/4
f 279/5/4 277/5/4 281/5/4
f 280/5/4 281/5/4 282/5/4
f 281/5/4 277/5/4 283/5/4
f 282/5/4 281/5/4 283/5/4
f 274/3/4 275/3/4 284/3/4
f 284/3/4 275/3/4 285/3/4
f 286/3/4 287/3/4 288/3/4
f 288/3/4 287/3/4 289/3/4
f 290/6/4 291/6/4 292/6/4
f 292/6/4 291/6/4 293/6/4
f 294/6/4 295/6/4 296/6/4
f 296/6/4 295/6/4 297/6/4
f 298/6/4 299/6/4 300/6/4
f 300/6/4 299/6/4 301/6/4
f 302/6/4 303/6/4 304/6/4
f 304/6/4 303/6/4 305/6/4
f 306/6/4 307/6/4 308/6/4
f 308/6/4 307/6/4 309/6/4
f 310/4/4 311/4/4 313/4/4
f 311/6/4 312/6/4 314/6/4
f 313/4/4 311/4/4 314/4/4
f 314/6/4 312/6/4 315/6/4
f 316/6/4 317/6/4 318/6/4
f 318/6/4 317/6/4 319/6/4
f 320/6/4 321/6/4 322/6/4
f 322/6/4 321/6/4 323/6/4
f 324/6/4 325/6/4 326/6/4
f 326/6/4 325/6/4 327/6/4
f 328/6/4 329/6/4 330/6/4
f 330/6/4 329/6/4 331/6/4
f 332/6/4 333/6/4 334/6/4
f 334/6/4 333/6/4 335/6/4
f 336/6/4 337/6/4 338/6/4
f 338/6/4 337/6/4 339/6/4
f 340/6/4 341/6/4 342/6/4
f 342/6/4 341/6/4 343/6/4
f 344/6/4 345/6/4 346/6/4
f 346/6/4 345/6/4 347/6/4
f 348/6/4 349/6/4 350/6/4
f 350/6/4 349/6/4 351/6/4
f 352/6/4 353/6/4 354/6/4
f 354/6/4 353/6/4 355/6/4
f 356/6/4 357/6/4 358/6/4
f 358/6/4 357/6/4 359/6/4
f 360/6/4 361/6/4 362/6/4
f 362/6/4 361/6/4 363/6/4
f 364/3/4 365/3/4 366/3/4
f 366/3/4 365/3/4 367/3/4
f 368/3/4 369/3/4 370/3/4
f 370/3/4 369/3/4 371/3/4
f 372/4/4 373/4/4 375/4/4
f 373/6/4 374/6/4 376/6/4
f 375/4/4 373/4/4 376/4/4
f 376/6/4 374/6/4 377/6/4
f 377/6/4 378/6/4 379/6/4
f 377/6/4 379/6/4 381/6/4
f 379/6/4 380/6/4 381/6/4
f 381/6/4 380/6/4 382/6/4
f 382/6/4 380/6/4 386/6/4
f 386/6/4 380/6/4 387/6/4
f 385/1/4 386/1/4 389/1/4
f 387/1/4 388/1/4 389/1/4
f 386/1/4 387/1/4 389/1/4
f 389/1/4 388/1/4 390/1/4
f 383/3/4 384/3/4 391/3/4
f 391/3/4 384/3/4 392/3/4
f 393/3/4 394/3/4 395/3/4
f 395/3/4 394/3/4 396/3/4
f 399/1/5 398/1/5 397/1/5
f 400/1/5 398/1/5 399/1/5
f 401/1/5 398/1/5 400/1/5
f 402/1/5 398/1/5 401/1/5
f 403/1/5 399/1/5 397/1/5
f 404/1/5 399/1/5 403/1/5
f 405/2/5 400/2/5 399/2/5
f 405/1/5 399/1/5 404/1/5
f 406/5/5 401/5/5 400/5/5
f 406/2/5 400/2/5 405/2/5
f 407/2/5 402/2/5 401/2/5
f 407/5/5 401/5/5 406/5/5
f 408/1/5 398/1/5 402/1/5
f 408/2/5 402/2/5 407/2/5
f 409/1/5 398/1/5 408/1/5
f 410/1/5 398/1/5 409/1/5
f 411/5/5 405/5/5 404/5/5
f 412/5/5 405/5/5 411/5/5
f 413/5/5 409/5/5 408/5/5
f 414/5/5 409/5/5 413/5/5
f 417/4/5 416/4/5 415/4/5
f 418/4/5 416/4/5 417/4/5
f 421/4/5 420/4/5 419/4/5
f 422/4/5 420/4/5 421/4/5
f 423/1/5 398/1/5 410/1/5
f 424/1/5 398/1/5 423/1/5
f 429/5/5 426/5/5 425/5/5
f 429/5/5 428/5/5 427/5/5
f 429/5/5 427/5/5 426/5/5
f 430/5/5 428/5/5 429/5/5
f 433/6/5 432/6/5 431/6/5
f 434/6/5 432/6/5 433/6/5
f 435/6/5 432/6/5 434/6/5
f 437/6/5 435/6/5 434/6/5
f 437/6/5 436/6/5 435/6/5
f 438/6/5 436/6/5 437/6/5
f 439/6/5 436/6/5 438/6/5
f 440/6/5 436/6/5 439/6/5
f 441/6/5 436/6/5 440/6/5
f 442/6/5 436/6/5 441/6/5
f 443/6/5 436/6/5 442/6/5
f 444/6/5 436/6/5 443/6/5
f 446/6/5 445/6/5 444/6/5
f 446/6/5 444/6/5 443/6/5
f 447/6/5 445/6/5 446/6/5
f 448/6/5 445/6/5 447/6/5
f 449/6/5 445/6/5 448/6/5
f 450/6/5 445/6/5 449/6/5
f 451/6/5 445/6/5 450/6/5
f 454/6/5 453/6/5 452/6/5
f 455/6/5 453/6/5 454/6/5
f 456/6/5 453/6/5 455/6/5
f 457/6/5 453/6/5 456/6/5
f 458/6/5 453/6/5 457/6/5
f 460/6/5 459/6/5 458/6/5
f 460/6/5 458/6/5 457/6/5
f 461/6/5 459/6/5 460/6/5
f 462/6/5 459/6/5 461/6/5
f 463/6/5 459/6/5 462/6/5
f 466/6/5 465/6/5 464/6/5
f 467/6/5 465/6/5 466/6/5
f 468/6/5 465/6/5 467/6/5
f 469/6/5 465/6/5 468/6/5
f 470/6/5 465/6/5 469/6/5
f 471/6/5 465/6/5 470/6/5
f 474/3/5 473/3/5 472/3/5
f 475/3/5 473/3/5 474/3/5
f 476/3/5 474/3/5 472/3/5
f 478/3/5 476/3/5 472/3/5
f 478/3/5 477/3/5 476/3/5
f 479/3/5 477/3/5 478/3/5
f 480/3/5 477/3/5 479/3/5
f 481/3/5 473/3/5 475/3/5
f 482/3/5 480/3/5 479/3/5
f 482/3/5 481/3/5 480/3/5
f 483/3/5 473/3/5 481/3/5
f 483/3/5 481/3/5 482/3/5
f 484/5/6 485/5/6 486/5/6
f 486/5/6 485/5/6 487/5/6
f 488/6/6 489/6/6 490/6/6
f 490/6/6 489/6/6 491/6/6
f 491/6/6 489/6/6 492/6/6
f 492/6/6 493/6/6 494/6/6
f 491/6/6 492/6/6 494/6/6
f 494/6/6 493/6/6 495/6/6
f 495/6/6 493/6/6 496/6/6
f 496/6/6 497/6/6 498/6/6
f 495/6/6 496/6/6 498/6/6
f 498/6/6 497/6/6 499/6/6
f 499/6/6 497/6/6 500/6/6
f 500/6/6 501/6/6 502/6/6
f 499/6/6 500/6/6 502/6/6
f 502/6/6 501/6/6 503/6/6
f 503/6/6 501/6/6 504/6/6
f 503/6/6 504/6/6 506/6/6
f 504/6/6 505/6/6 506/6/6
f 506/6/6 505/6/6 507/6/6
f 507/6/6 505/6/6 508/6/6
f 508/6/6 505/6/6 509/6/6
f 509/6/6 505/6/6 510/6/6
f 510/6/6 505/6/6 511/6/6
f 512/6/6 513/6/6 514/6/6
f 514/6/6 515/6/6 516/6/6
f 512/6/6 514/6/6 518/6/6
f 516/6/6 517/6/6 518/6/6
f 514/6/6 516/6/6 518/6/6
f 518/6/6 517/6/6 519/6/6
f 519/6/6 517/6/6 520/6/6
f 520/6/6 521/6/6 522/6/6
f 519/6/6 520/6/6 522/6/6
f 522/6/6 521/6/6 523/6/6
f 523/6/6 521/6/6 524/6/6
f 524/6/6 525/6/6 526/6/6
f 523/6/6 524/6/6 526/6/6
f 526/6/6 525/6/6 527/6/6
f 527/6/6 525/6/6 528/6/6
f 528/6/6 529/6/6 530/6/6
f 527/6/6 528/6/6 530/6/6
f 530/6/6 529/6/6 531/6/6
f 531/6/6 529/6/6 532/6/6
f 532/6/6 533/6/6 534/6/6
f 531/6/6 532/6/6 534/6/6
f 534/6/6 533/6/6 535/6/6
f 535/6/6 533/6/6 536/6/6
f 536/6/6 533/6/6 537/6/6
f 538/6/6 539/6/6 540/6/6
f 540/6/6 539/6/6 541/6/6
f 541/6/6 539/6/6 542/6/6
f 542/6/6 539/6/6 543/6/6
f 543/6/6 539/6/6 544/6/6
f 544/6/6 539/6/6 545/6/6
f 545/6/6 539/6/6 546/6/6
f 546/6/6 539/6/6 547/6/6
f 547/6/6 539/6/6 548/6/6
f 548/6/6 539/6/6 549/6/6
f 549/6/6 539/6/6 550/6/6
f 550/6/6 539/6/6 551/6/6
f 551/6/6 539/6/6 552/6/6
f 552/6/6 539/6/6 553/6/6
f 553/6/6 539/6/6 554/6/6
f 554/6/6 539/6/6 555/6/6
f 556/3/6 557/3/6 558/3/6
f 558/3/6 557/3/6 559/3/6
f 556/3/6 558/3/6 560/3/6
f 556/3/6 560/3/6 562/3/6
f 560/3/6 561/3/6 562/3/6
f 562/3/6 561/3/6 563/3/6
f 563/3/6 561/3/6 564/3/6
f 559/3/6 557/3/6 565/3/6
f 563/3/6 564/3/6 566/3/6
f 564/3/6 565/3/6 566/3/6
f 565/3/6 557/3/6 567/3/6
f 566/3/6 565/3/6 567/3/6
f 568/3/6 569/3/6 570/3/6
f 570/3/6 569/3/6 571/3/6
f 568/3/6 570/3/6 572/3/6
f 568/3/6 572/3/6 574/3/6
f 572/3/6 573/3/6 574/3/6
f 574/3/6 573/3/6 575/3/6
f 575/3/6 573/3/6 576/3/6
f 571/3/6 569/3/6 577/3/6
f 575/3/6 576/3/6 578/3/6
f 576/3/6 577/3/6 578/3/6
f 577/3/6 569/3/6 579/3/6
f 578/3/6 577/3/6 579/3/6
f 580/3/6 581/3/6 582/3/6
f 582/3/6 581/3/6 583/3/6
f 580/3/6 582/3/6 584/3/6
f 580/3/6 584/3/6 586/3/6
f 584/3/6 585/3/6 586/3/6
f 586/3/6 585/3/6 587/3/6
f 587/3/6 585/3/6 588/3/6
f 583/3/6 581/3/6 589/3/6
f 587/3/6 588/3/6 590/3/6
f 588/3/6 589/3/6 590/3/6
f 589/3/6 581/3/6 591/3/6
f 590/3/6 589/3/6 591/3/6
f 592/3/6 593/3/6 594/3/6
f 594/3/6 593/3/6 595/3/6
f 595/3/6 593/3/6 596/3/6
f 596/3/6 593/3/6 597/3/6
