# MagicaVoxel @ ephtracy

# material
mtllib swewew.mtl
usemtl palette

# normals
vn -1 0 0
vn 1 0 0
vn 0 0 1
vn 0 0 -1
vn 0 -1 0
vn 0 1 0

# texcoords
vt 0.462891 0.5
vt 0.466797 0.5

# verts
v -60 0 60
v -60 0 -60
v -60 3 60
v -60 3 2
v -60 3 -60
v -60 4 2
v -60 4 -60
v -53 3 3
v -53 3 2
v -53 4 3
v -53 4 2
v -49 3 4
v -49 3 3
v -49 4 4
v -49 4 3
v -47 3 5
v -47 3 4
v -47 4 5
v -47 4 4
v -45 3 6
v -45 3 5
v -45 4 6
v -45 4 5
v -42 3 7
v -42 3 6
v -42 4 7
v -42 4 6
v -39 3 8
v -39 3 7
v -39 4 8
v -39 4 7
v -37 3 8
v -37 3 7
v -37 4 8
v -37 4 7
v -24 3 9
v -24 3 8
v -24 4 9
v -24 4 8
v -15 3 10
v -15 3 9
v -15 4 10
v -15 4 9
v -8 3 11
v -8 3 10
v -8 4 11
v -8 4 10
v -3 3 12
v -3 3 11
v -3 4 12
v -3 4 11
v 1 3 13
v 1 3 12
v 1 4 13
v 1 4 12
v 6 3 14
v 6 3 13
v 6 4 14
v 6 4 13
v 13 3 15
v 13 3 14
v 13 4 15
v 13 4 14
v 22 3 16
v 22 3 15
v 22 4 16
v 22 4 15
v -38 3 8
v -38 3 7
v -38 4 8
v -38 4 7
v 27 3 16
v 27 3 15
v 27 4 16
v 27 4 15
v 38 3 15
v 38 3 14
v 38 4 15
v 38 4 14
v 40 3 14
v 40 3 13
v 40 4 14
v 40 4 13
v 42 3 13
v 42 3 11
v 42 4 13
v 42 4 11
v 44 3 11
v 44 3 9
v 44 4 11
v 44 4 9
v 46 3 9
v 46 3 8
v 46 4 9
v 46 4 8
v 47 3 8
v 47 3 7
v 47 4 8
v 47 4 7
v 48 3 7
v 48 3 6
v 48 4 7
v 48 4 6
v 49 3 6
v 49 3 5
v 49 4 6
v 49 4 5
v 50 3 5
v 50 3 4
v 50 4 5
v 50 4 4
v 51 3 4
v 51 3 2
v 51 4 4
v 51 4 2
v 53 3 2
v 53 3 -0
v 53 4 2
v 53 4 -0
v 55 3 -0
v 55 3 -1
v 55 4 -0
v 55 4 -1
v 57 3 -1
v 57 3 -2
v 57 4 -1
v 57 4 -2
v 60 0 60
v 60 0 -60
v 60 3 60
v 60 3 -2
v 60 3 -60
v 60 4 -2
v 60 4 -60
v -60 0 60
v -60 3 60
v 60 0 60
v 60 3 60
v 22 3 16
v 22 4 16
v 27 3 16
v 27 4 16
v 13 3 15
v 13 4 15
v 22 3 15
v 22 4 15
v 27 3 15
v 27 4 15
v 38 3 15
v 38 4 15
v 6 3 14
v 6 4 14
v 13 3 14
v 13 4 14
v 38 3 14
v 38 4 14
v 40 3 14
v 40 4 14
v 1 3 13
v 1 4 13
v 6 3 13
v 6 4 13
v 40 3 13
v 40 4 13
v 42 3 13
v 42 4 13
v -3 3 12
v -3 4 12
v 1 3 12
v 1 4 12
v -8 3 11
v -8 4 11
v -3 3 11
v -3 4 11
v 42 3 11
v 42 4 11
v 44 3 11
v 44 4 11
v -15 3 10
v -15 4 10
v -8 3 10
v -8 4 10
v -24 3 9
v -24 4 9
v -15 3 9
v -15 4 9
v 44 3 9
v 44 4 9
v 46 3 9
v 46 4 9
v -39 3 8
v -39 4 8
v -38 3 8
v -38 4 8
v -37 3 8
v -37 4 8
v -24 3 8
v -24 4 8
v 46 3 8
v 46 4 8
v 47 3 8
v 47 4 8
v -42 3 7
v -42 4 7
v -39 3 7
v -39 4 7
v -38 3 7
v -38 4 7
v -37 3 7
v -37 4 7
v 47 3 7
v 47 4 7
v 48 3 7
v 48 4 7
v -45 3 6
v -45 4 6
v -42 3 6
v -42 4 6
v 48 3 6
v 48 4 6
v 49 3 6
v 49 4 6
v -47 3 5
v -47 4 5
v -45 3 5
v -45 4 5
v 49 3 5
v 49 4 5
v 50 3 5
v 50 4 5
v -49 3 4
v -49 4 4
v -47 3 4
v -47 4 4
v 50 3 4
v 50 4 4
v 51 3 4
v 51 4 4
v -53 3 3
v -53 4 3
v -49 3 3
v -49 4 3
v -60 3 2
v -60 4 2
v -53 3 2
v -53 4 2
v 51 3 2
v 51 4 2
v 53 3 2
v 53 4 2
v 53 3 -0
v 53 4 -0
v 55 3 -0
v 55 4 -0
v 55 3 -1
v 55 4 -1
v 57 3 -1
v 57 4 -1
v 57 3 -2
v 57 4 -2
v 60 3 -2
v 60 4 -2
v -60 0 -60
v -60 3 -60
v -60 4 -60
v 60 0 -60
v 60 3 -60
v 60 4 -60
v -60 0 60
v 60 0 60
v -60 0 -60
v 60 0 -60
v -60 3 60
v 60 3 60
v 22 3 16
v 27 3 16
v 13 3 15
v 22 3 15
v 27 3 15
v 38 3 15
v 6 3 14
v 13 3 14
v 38 3 14
v 40 3 14
v 1 3 13
v 6 3 13
v 40 3 13
v 42 3 13
v -3 3 12
v 1 3 12
v -8 3 11
v -3 3 11
v 42 3 11
v 44 3 11
v -15 3 10
v -8 3 10
v -24 3 9
v -15 3 9
v 44 3 9
v 46 3 9
v -39 3 8
v -38 3 8
v -37 3 8
v -24 3 8
v 46 3 8
v 47 3 8
v -42 3 7
v -39 3 7
v -38 3 7
v -37 3 7
v 47 3 7
v 48 3 7
v -45 3 6
v -42 3 6
v 48 3 6
v 49 3 6
v -47 3 5
v -45 3 5
v 49 3 5
v 50 3 5
v -49 3 4
v -47 3 4
v 50 3 4
v 51 3 4
v -53 3 3
v -49 3 3
v -60 3 2
v -53 3 2
v 51 3 2
v 53 3 2
v 53 3 -0
v 55 3 -0
v 55 3 -1
v 57 3 -1
v 57 3 -2
v 60 3 -2
v 22 4 16
v 27 4 16
v 13 4 15
v 22 4 15
v 27 4 15
v 38 4 15
v 6 4 14
v 13 4 14
v 38 4 14
v 40 4 14
v 1 4 13
v 6 4 13
v 40 4 13
v 42 4 13
v -3 4 12
v 1 4 12
v -8 4 11
v -3 4 11
v 42 4 11
v 44 4 11
v -15 4 10
v -8 4 10
v -24 4 9
v -15 4 9
v 44 4 9
v 46 4 9
v -39 4 8
v -38 4 8
v -37 4 8
v -24 4 8
v 46 4 8
v 47 4 8
v -42 4 7
v -39 4 7
v -38 4 7
v -37 4 7
v 47 4 7
v 48 4 7
v -45 4 6
v -42 4 6
v 48 4 6
v 49 4 6
v -47 4 5
v -45 4 5
v 49 4 5
v 50 4 5
v -49 4 4
v -47 4 4
v 50 4 4
v 51 4 4
v -53 4 3
v -49 4 3
v -60 4 2
v -53 4 2
v 51 4 2
v 53 4 2
v 53 4 -0
v 55 4 -0
v 55 4 -1
v 57 4 -1
v 57 4 -2
v 60 4 -2
v -60 4 -60
v 60 4 -60

# faces
f 3/1/1 2/1/1 1/1/1
f 4/1/1 2/1/1 3/1/1
f 5/1/1 2/1/1 4/1/1
f 6/2/1 5/2/1 4/2/1
f 7/2/1 5/2/1 6/2/1
f 10/2/1 9/2/1 8/2/1
f 11/2/1 9/2/1 10/2/1
f 14/2/1 13/2/1 12/2/1
f 15/2/1 13/2/1 14/2/1
f 18/2/1 17/2/1 16/2/1
f 19/2/1 17/2/1 18/2/1
f 22/2/1 21/2/1 20/2/1
f 23/2/1 21/2/1 22/2/1
f 26/2/1 25/2/1 24/2/1
f 27/2/1 25/2/1 26/2/1
f 30/2/1 29/2/1 28/2/1
f 31/2/1 29/2/1 30/2/1
f 34/2/1 33/2/1 32/2/1
f 35/2/1 33/2/1 34/2/1
f 38/2/1 37/2/1 36/2/1
f 39/2/1 37/2/1 38/2/1
f 42/2/1 41/2/1 40/2/1
f 43/2/1 41/2/1 42/2/1
f 46/2/1 45/2/1 44/2/1
f 47/2/1 45/2/1 46/2/1
f 50/2/1 49/2/1 48/2/1
f 51/2/1 49/2/1 50/2/1
f 54/2/1 53/2/1 52/2/1
f 55/2/1 53/2/1 54/2/1
f 58/2/1 57/2/1 56/2/1
f 59/2/1 57/2/1 58/2/1
f 62/2/1 61/2/1 60/2/1
f 63/2/1 61/2/1 62/2/1
f 66/2/1 65/2/1 64/2/1
f 67/2/1 65/2/1 66/2/1
f 68/2/2 69/2/2 70/2/2
f 70/2/2 69/2/2 71/2/2
f 72/2/2 73/2/2 74/2/2
f 74/2/2 73/2/2 75/2/2
f 76/2/2 77/2/2 78/2/2
f 78/2/2 77/2/2 79/2/2
f 80/2/2 81/2/2 82/2/2
f 82/2/2 81/2/2 83/2/2
f 84/2/2 85/2/2 86/2/2
f 86/2/2 85/2/2 87/2/2
f 88/2/2 89/2/2 90/2/2
f 90/2/2 89/2/2 91/2/2
f 92/2/2 93/2/2 94/2/2
f 94/2/2 93/2/2 95/2/2
f 96/2/2 97/2/2 98/2/2
f 98/2/2 97/2/2 99/2/2
f 100/2/2 101/2/2 102/2/2
f 102/2/2 101/2/2 103/2/2
f 104/2/2 105/2/2 106/2/2
f 106/2/2 105/2/2 107/2/2
f 108/2/2 109/2/2 110/2/2
f 110/2/2 109/2/2 111/2/2
f 112/2/2 113/2/2 114/2/2
f 114/2/2 113/2/2 115/2/2
f 116/2/2 117/2/2 118/2/2
f 118/2/2 117/2/2 119/2/2
f 120/2/2 121/2/2 122/2/2
f 122/2/2 121/2/2 123/2/2
f 124/2/2 125/2/2 126/2/2
f 126/2/2 125/2/2 127/2/2
f 128/1/2 129/1/2 130/1/2
f 130/1/2 129/1/2 131/1/2
f 131/1/2 129/1/2 132/1/2
f 131/2/2 132/2/2 133/2/2
f 133/2/2 132/2/2 134/2/2
f 137/1/3 136/1/3 135/1/3
f 138/1/3 136/1/3 137/1/3
f 141/2/3 140/2/3 139/2/3
f 142/2/3 140/2/3 141/2/3
f 145/2/3 144/2/3 143/2/3
f 146/2/3 144/2/3 145/2/3
f 149/2/3 148/2/3 147/2/3
f 150/2/3 148/2/3 149/2/3
f 153/2/3 152/2/3 151/2/3
f 154/2/3 152/2/3 153/2/3
f 157/2/3 156/2/3 155/2/3
f 158/2/3 156/2/3 157/2/3
f 161/2/3 160/2/3 159/2/3
f 162/2/3 160/2/3 161/2/3
f 165/2/3 164/2/3 163/2/3
f 166/2/3 164/2/3 165/2/3
f 169/2/3 168/2/3 167/2/3
f 170/2/3 168/2/3 169/2/3
f 173/2/3 172/2/3 171/2/3
f 174/2/3 172/2/3 173/2/3
f 177/2/3 176/2/3 175/2/3
f 178/2/3 176/2/3 177/2/3
f 181/2/3 180/2/3 179/2/3
f 182/2/3 180/2/3 181/2/3
f 185/2/3 184/2/3 183/2/3
f 186/2/3 184/2/3 185/2/3
f 189/2/3 188/2/3 187/2/3
f 190/2/3 188/2/3 189/2/3
f 193/2/3 192/2/3 191/2/3
f 194/2/3 192/2/3 193/2/3
f 197/2/3 196/2/3 195/2/3
f 198/2/3 196/2/3 197/2/3
f 201/2/3 200/2/3 199/2/3
f 202/2/3 200/2/3 201/2/3
f 205/2/3 204/2/3 203/2/3
f 206/2/3 204/2/3 205/2/3
f 209/2/3 208/2/3 207/2/3
f 210/2/3 208/2/3 209/2/3
f 213/2/3 212/2/3 211/2/3
f 214/2/3 212/2/3 213/2/3
f 217/2/3 216/2/3 215/2/3
f 218/2/3 216/2/3 217/2/3
f 221/2/3 220/2/3 219/2/3
f 222/2/3 220/2/3 221/2/3
f 225/2/3 224/2/3 223/2/3
f 226/2/3 224/2/3 225/2/3
f 229/2/3 228/2/3 227/2/3
f 230/2/3 228/2/3 229/2/3
f 233/2/3 232/2/3 231/2/3
f 234/2/3 232/2/3 233/2/3
f 237/2/3 236/2/3 235/2/3
f 238/2/3 236/2/3 237/2/3
f 241/2/3 240/2/3 239/2/3
f 242/2/3 240/2/3 241/2/3
f 245/2/3 244/2/3 243/2/3
f 246/2/3 244/2/3 245/2/3
f 249/2/3 248/2/3 247/2/3
f 250/2/3 248/2/3 249/2/3
f 253/2/3 252/2/3 251/2/3
f 254/2/3 252/2/3 253/2/3
f 257/2/3 256/2/3 255/2/3
f 258/2/3 256/2/3 257/2/3
f 261/2/3 260/2/3 259/2/3
f 262/2/3 260/2/3 261/2/3
f 263/1/4 264/1/4 266/1/4
f 264/2/4 265/2/4 267/2/4
f 266/1/4 264/1/4 267/1/4
f 267/2/4 265/2/4 268/2/4
f 271/1/5 270/1/5 269/1/5
f 272/1/5 270/1/5 271/1/5
f 273/1/6 274/1/6 275/1/6
f 275/1/6 274/1/6 276/1/6
f 273/1/6 275/1/6 277/1/6
f 277/1/6 275/1/6 278/1/6
f 276/1/6 274/1/6 279/1/6
f 279/1/6 274/1/6 280/1/6
f 273/1/6 277/1/6 281/1/6
f 281/1/6 277/1/6 282/1/6
f 280/1/6 274/1/6 283/1/6
f 283/1/6 274/1/6 284/1/6
f 273/1/6 281/1/6 285/1/6
f 285/1/6 281/1/6 286/1/6
f 284/1/6 274/1/6 287/1/6
f 287/1/6 274/1/6 288/1/6
f 273/1/6 285/1/6 289/1/6
f 289/1/6 285/1/6 290/1/6
f 273/1/6 289/1/6 291/1/6
f 291/1/6 289/1/6 292/1/6
f 288/1/6 274/1/6 293/1/6
f 293/1/6 274/1/6 294/1/6
f 273/1/6 291/1/6 295/1/6
f 295/1/6 291/1/6 296/1/6
f 273/1/6 295/1/6 297/1/6
f 297/1/6 295/1/6 298/1/6
f 294/1/6 274/1/6 299/1/6
f 299/1/6 274/1/6 300/1/6
f 273/1/6 297/1/6 301/1/6
f 301/1/6 297/1/6 302/1/6
f 302/1/6 297/1/6 303/1/6
f 303/1/6 297/1/6 304/1/6
f 300/1/6 274/1/6 305/1/6
f 305/1/6 274/1/6 306/1/6
f 273/1/6 301/1/6 307/1/6
f 307/1/6 301/1/6 308/1/6
f 302/1/6 303/1/6 309/1/6
f 309/1/6 303/1/6 310/1/6
f 306/1/6 274/1/6 311/1/6
f 311/1/6 274/1/6 312/1/6
f 273/1/6 307/1/6 313/1/6
f 313/1/6 307/1/6 314/1/6
f 312/1/6 274/1/6 315/1/6
f 315/1/6 274/1/6 316/1/6
f 273/1/6 313/1/6 317/1/6
f 317/1/6 313/1/6 318/1/6
f 316/1/6 274/1/6 319/1/6
f 319/1/6 274/1/6 320/1/6
f 273/1/6 317/1/6 321/1/6
f 321/1/6 317/1/6 322/1/6
f 320/1/6 274/1/6 323/1/6
f 323/1/6 274/1/6 324/1/6
f 273/1/6 321/1/6 325/1/6
f 325/1/6 321/1/6 326/1/6
f 273/1/6 325/1/6 327/1/6
f 327/1/6 325/1/6 328/1/6
f 324/1/6 274/1/6 329/1/6
f 329/1/6 274/1/6 330/1/6
f 330/1/6 274/1/6 331/1/6
f 331/1/6 274/1/6 332/1/6
f 332/1/6 274/1/6 333/1/6
f 333/1/6 274/1/6 334/1/6
f 334/1/6 274/1/6 335/1/6
f 335/1/6 274/1/6 336/1/6
f 337/2/6 338/2/6 340/2/6
f 340/2/6 338/2/6 341/2/6
f 339/2/6 340/2/6 344/2/6
f 341/2/6 342/2/6 344/2/6
f 340/2/6 341/2/6 344/2/6
f 344/2/6 342/2/6 345/2/6
f 343/2/6 344/2/6 348/2/6
f 345/2/6 346/2/6 348/2/6
f 344/2/6 345/2/6 348/2/6
f 348/2/6 346/2/6 349/2/6
f 347/2/6 348/2/6 352/2/6
f 349/2/6 350/2/6 352/2/6
f 348/2/6 349/2/6 352/2/6
f 351/2/6 352/2/6 354/2/6
f 352/2/6 350/2/6 355/2/6
f 354/2/6 352/2/6 355/2/6
f 353/2/6 354/2/6 358/2/6
f 355/2/6 356/2/6 358/2/6
f 354/2/6 355/2/6 358/2/6
f 357/2/6 358/2/6 360/2/6
f 358/2/6 356/2/6 361/2/6
f 360/2/6 358/2/6 361/2/6
f 359/2/6 360/2/6 366/2/6
f 360/2/6 361/2/6 366/2/6
f 361/2/6 362/2/6 366/2/6
f 366/2/6 362/2/6 367/2/6
f 363/2/6 364/2/6 370/2/6
f 370/2/6 364/2/6 371/2/6
f 367/2/6 368/2/6 372/2/6
f 365/2/6 366/2/6 372/2/6
f 366/2/6 367/2/6 372/2/6
f 372/2/6 368/2/6 373/2/6
f 370/2/6 371/2/6 376/2/6
f 373/2/6 374/2/6 376/2/6
f 372/2/6 373/2/6 376/2/6
f 371/2/6 372/2/6 376/2/6
f 369/2/6 370/2/6 376/2/6
f 376/2/6 374/2/6 377/2/6
f 375/2/6 376/2/6 380/2/6
f 377/2/6 378/2/6 380/2/6
f 376/2/6 377/2/6 380/2/6
f 380/2/6 378/2/6 381/2/6
f 379/2/6 380/2/6 384/2/6
f 381/2/6 382/2/6 384/2/6
f 380/2/6 381/2/6 384/2/6
f 384/2/6 382/2/6 385/2/6
f 383/2/6 384/2/6 388/2/6
f 385/2/6 386/2/6 388/2/6
f 384/2/6 385/2/6 388/2/6
f 387/2/6 388/2/6 390/2/6
f 388/2/6 386/2/6 391/2/6
f 390/2/6 388/2/6 391/2/6
f 389/2/6 390/2/6 393/2/6
f 391/2/6 392/2/6 393/2/6
f 390/2/6 391/2/6 393/2/6
f 393/2/6 394/2/6 395/2/6
f 395/2/6 396/2/6 397/2/6
f 389/2/6 393/2/6 399/2/6
f 397/2/6 398/2/6 399/2/6
f 395/2/6 397/2/6 399/2/6
f 393/2/6 395/2/6 399/2/6
f 399/2/6 398/2/6 400/2/6
